<svg version="1.2" xmlns="http://www.w3.org/2000/svg" viewBox="0 0 40 84" width="40" height="84"><style>.a{opacity:0;fill:#221e26}.b{fill:none;stroke:#04c1f3}.c{fill:#04c1f3}.d{fill:none;stroke:#707070}.e{fill:#908e92}</style><path class="a" d="m20 40c-11.1 0-20-8.9-20-20 0-11.1 8.9-20 20-20 11.1 0 20 8.9 20 20 0 11.1-8.9 20-20 20z"/><path class="b" d="m20 39.5c-10.8 0-19.5-8.7-19.5-19.5 0-10.8 8.7-19.5 19.5-19.5 10.8 0 19.5 8.7 19.5 19.5 0 10.8-8.7 19.5-19.5 19.5z"/><path class="c" d="m14.5 30h-4.2v-13.4h4.2zm-2.1-15.1c-1 0-1.9-0.6-2.2-1.5-0.4-0.9-0.2-1.9 0.5-2.6 0.7-0.7 1.7-0.9 2.6-0.6 0.9 0.4 1.5 1.3 1.5 2.2q0 0.5-0.2 1-0.2 0.4-0.5 0.8-0.3 0.3-0.8 0.5-0.4 0.2-0.9 0.2zm17.6 15.1h-4.1v-6.5c0-1.5-0.1-3.5-2.2-3.5-2.2 0-2.5 1.7-2.5 3.4v6.6h-4.1v-13.3h4v1.8q0.3-0.5 0.7-0.9 0.5-0.4 1-0.7 0.5-0.3 1.1-0.4 0.5-0.2 1.1-0.1c4.2 0 5 2.7 5 6.3z"/><path class="a" d="m20 84c-11.1 0-20-8.9-20-20 0-11.1 8.9-20 20-20 11.1 0 20 8.9 20 20 0 11.1-8.9 20-20 20z"/><path class="d" d="m20 83.5c-10.8 0-19.5-8.7-19.5-19.5 0-10.8 8.7-19.5 19.5-19.5 10.8 0 19.5 8.7 19.5 19.5 0 10.8-8.7 19.5-19.5 19.5z"/><path class="e" d="m14.5 74h-4.2v-13.4h4.2zm-2.1-15.1c-1 0-1.9-0.6-2.2-1.5-0.4-0.9-0.2-1.9 0.5-2.6 0.7-0.7 1.7-0.9 2.6-0.6 0.9 0.4 1.5 1.3 1.5 2.2q0 0.5-0.2 1-0.2 0.4-0.5 0.8-0.3 0.3-0.8 0.5-0.4 0.2-0.9 0.2zm17.6 15.1h-4.1v-6.5c0-1.5-0.1-3.5-2.2-3.5-2.2 0-2.5 1.7-2.5 3.4v6.6h-4.1v-13.3h4v1.8q0.3-0.5 0.7-0.9 0.5-0.4 1-0.7 0.5-0.3 1.1-0.4 0.5-0.2 1.1-0.1c4.2 0 5 2.7 5 6.3z"/></svg>