<svg xmlns="http://www.w3.org/2000/svg" width="539.006" height="333.16" viewBox="0 0 539.006 333.16">
  <g id="Group_24116" data-name="Group 24116" transform="translate(23510 7963.021)">
    <g id="freepik--Device--inject-2" transform="translate(-23413.287 -7874.278)">
      <rect id="Rectangle_2690" data-name="Rectangle 2690" width="310.268" height="205.177" rx="14.57" transform="translate(12.128 0)" fill="#bbb"/>
      <path id="Path_30233" data-name="Path 30233" d="M160.86,394.16H497.013v3.591a14.363,14.363,0,0,1-14.363,14.363H175.223a14.363,14.363,0,0,1-14.363-14.363V394.16Z" transform="translate(-160.86 -202.232)" fill="#bbb"/>
      <rect id="Rectangle_2691" data-name="Rectangle 2691" width="292.742" height="173.265" transform="translate(20.455 8.15)" fill="#908e92"/>
      <path id="Path_30234" data-name="Path 30234" d="M330.25,391.77l4.164,6.641h58.7l3.873-6.641Z" transform="translate(-193.57 -201.77)" fill="#908e92"/>
      <rect id="Rectangle_2692" data-name="Rectangle 2692" width="281.284" height="166.85" rx="3.27" transform="translate(26.49 14.016)" fill="#ebebeb"/>
      <path id="Path_30235" data-name="Path 30235" d="M474.594,343.747H193.31l.307-154.617H474.594Z" transform="translate(-167.126 -162.64)" fill="#fafafa"/>
      <path id="Path_30236" data-name="Path 30236" d="M221.2,181.123a2.243,2.243,0,1,1-.66-1.589,2.251,2.251,0,0,1,.66,1.589Z" transform="translate(-171.643 -160.66)" fill="#bbb"/>
      <path id="Path_30237" data-name="Path 30237" d="M204.322,181.123a2.235,2.235,0,1,1-.655-1.589A2.251,2.251,0,0,1,204.322,181.123Z" transform="translate(-168.383 -160.66)" fill="#bbb"/>
      <path id="Path_30238" data-name="Path 30238" d="M212.422,181.123a2.235,2.235,0,1,1-.655-1.589A2.251,2.251,0,0,1,212.422,181.123Z" transform="translate(-169.947 -160.66)" fill="#bbb"/>
      <path id="Path_30239" data-name="Path 30239" d="M483.487,391.722c0,.113-68.861.2-153.786.2s-153.81-.089-153.81-.2,68.852-.2,153.81-.2S483.487,391.617,483.487,391.722Z" transform="translate(-163.762 -201.722)" fill="#263238"/>
      <path id="Path_30240" data-name="Path 30240" d="M305.14,263.725l114.442-1.065,3.349,77.793-118.5-.847Z" transform="translate(-188.584 -176.839)" fill="#a7cf45"/>
      <path id="Path_30241" data-name="Path 30241" d="M305.31,253.151l54.062-43.935a6.229,6.229,0,0,1,7.859,0l52.513,42.862" transform="translate(-188.754 -166.249)" fill="#3f540c"/>
      <path id="Path_30243" data-name="Path 30243" d="M304.43,347.406c-.137-.137,9-10.159,20.414-22.383s20.794-22,20.939-21.883-9,10.151-20.422,22.383S304.575,347.551,304.43,347.406Z" transform="translate(-188.584 -184.655)" fill="#263238"/>
      <path id="Path_30244" data-name="Path 30244" d="M441.856,348.5c-.145.137-9.086-9.683-19.971-21.843s-19.591-22.19-19.446-22.319,9.086,9.683,19.979,21.851S442,348.372,441.856,348.5Z" transform="translate(-207.51 -184.887)" fill="#263238"/>
      <g id="Group_24110" data-name="Group 24110" transform="translate(116.556 85.821)" opacity="0.5">
        <path id="Path_30245" data-name="Path 30245" d="M419.752,262.66l-57.37,46.025-57.072-44.96" transform="translate(-305.31 -262.66)"/>
      </g>
      <path id="Path_30246" data-name="Path 30246" d="M312.408,260.353l-.258-35.745,100.208-1.388,1.2,37.6-49.866,39.643Z" transform="translate(-190.075 -169.223)" fill="#fafafa"/>
      <path id="Path_30247" data-name="Path 30247" d="M312.391,260.311s.331.234.952.71l2.727,2.106,10.377,8.069c8.94,6.98,21.786,16.945,37.335,29.113h-.21l49.842-39.675-.073.169c-.234-7.173-.476-14.7-.718-22.359-.169-5.156-.331-10.256-.492-15.25l.21.2-100.2,1.323.129-.137c.048,11.24.1,20.172.121,26.289v7.052c0-1.614-.048-3.954-.081-7-.056-6.14-.145-15.073-.25-26.337v-.129h.129L412.333,223h.21v.21c.161,4.995.323,10.086.492,15.242.242,7.657.484,15.186.71,22.359v.1l-.081.065-49.9,39.619-.1.089-.1-.089-37.295-29.266-10.3-8.117-2.687-2.13Z" transform="translate(-190.057 -169.18)" fill="#263238"/>
      <path id="Path_30248" data-name="Path 30248" d="M400.377,245.542c0,.113-15.331.331-34.229.484s-34.228.186-34.228.073,15.331-.331,34.228-.492S400.377,245.421,400.377,245.542Z" transform="translate(-193.892 -173.518)" fill="#263238"/>
      <path id="Path_30249" data-name="Path 30249" d="M400.4,258.054c0,.113-15.331.339-34.22.492s-34.228.186-34.228.065,15.331-.331,34.228-.484S400.4,257.941,400.4,258.054Z" transform="translate(-193.898 -175.936)" fill="#263238"/>
      <path id="Path_30250" data-name="Path 30250" d="M400.429,272.474c0,.121-15.331.339-34.22.492s-34.229.186-34.229.065,15.331-.331,34.229-.484S400.429,272.361,400.429,272.474Z" transform="translate(-193.904 -178.721)" fill="#263238"/>
      <path id="Path_30251" data-name="Path 30251" d="M401.212,286.893c0,.121-14.613.331-32.647.476s-32.655.178-32.655.056,14.613-.331,32.655-.476S401.212,286.78,401.212,286.893Z" transform="translate(-194.663 -181.504)" fill="#263238"/>
      <path id="Path_30252" data-name="Path 30252" d="M391.544,299.59a1.333,1.333,0,0,1-.4.048l-1.154.048-4.228.1-13.967.258c-5.455.1-10.4.129-13.975.129h-5.382a1.609,1.609,0,0,1-.4-.04,1.333,1.333,0,0,1,.4-.048l1.146-.048,4.236-.1,13.967-.25c5.455-.1,10.393-.137,13.967-.137h5.39A2.056,2.056,0,0,1,391.544,299.59Z" transform="translate(-197.776 -183.962)" fill="#263238"/>
      <path id="Path_30253" data-name="Path 30253" d="M381.524,311.747a125.824,125.824,0,0,1-14.524.032,125.787,125.787,0,0,1,14.524-.032Z" transform="translate(-200.666 -186.275)" fill="#263238"/>
    </g>
    <g id="freepik--Floor--inject-2" transform="translate(-23510 -7665.3)">
      <path id="Path_30254" data-name="Path 30254" d="M580.006,415.5c0,.121-120.663.21-269.5.21S41,415.621,41,415.5s120.639-.21,269.5-.21S580.006,415.387,580.006,415.5Z" transform="translate(-41 -415.29)" fill="#263238"/>
    </g>
    <g id="freepik--envelope-3--inject-2" transform="translate(-23219.234 -7946.006)">
      <path id="Path_30255" data-name="Path 30255" d="M401.681,222.83c.113,0,.161.468.1,1.025s-.194.992-.307.984-.161-.476-.1-1.033S401.56,222.814,401.681,222.83Z" transform="translate(-401.351 -97.419)" fill="#263238"/>
      <path id="Path_30256" data-name="Path 30256" d="M402.943,213.09a4.913,4.913,0,0,1-.089,1.985,4.985,4.985,0,0,1-.508,1.928,9.358,9.358,0,0,1,.6-3.913Z" transform="translate(-401.539 -95.538)" fill="#263238"/>
      <path id="Path_30257" data-name="Path 30257" d="M404.84,203.45a4.841,4.841,0,0,1-.218,1.985,4.955,4.955,0,0,1-.637,1.888,4.769,4.769,0,0,1,.226-1.977A4.842,4.842,0,0,1,404.84,203.45Z" transform="translate(-401.855 -93.677)" fill="#263238"/>
      <path id="Path_30258" data-name="Path 30258" d="M407.444,194a9.3,9.3,0,0,1-1.154,3.8,4.953,4.953,0,0,1,.379-1.961,4.745,4.745,0,0,1,.775-1.84Z" transform="translate(-402.304 -91.852)" fill="#263238"/>
      <path id="Path_30259" data-name="Path 30259" d="M410.8,184.78a4.963,4.963,0,0,1-.541,1.92,4.841,4.841,0,0,1-.928,1.767,5,5,0,0,1,.541-1.9A4.777,4.777,0,0,1,410.8,184.78Z" transform="translate(-402.892 -90.072)" fill="#263238"/>
      <path id="Path_30260" data-name="Path 30260" d="M414.977,175.929a9.563,9.563,0,0,1-1.807,3.526,4.841,4.841,0,0,1,.718-1.856C414.388,176.623,414.873,175.873,414.977,175.929Z" transform="translate(-403.633 -88.362)" fill="#263238"/>
      <path id="Path_30261" data-name="Path 30261" d="M420.033,167.549a4.937,4.937,0,0,1-.928,1.767c-.581.92-1.138,1.614-1.234,1.557a4.688,4.688,0,0,1,.879-1.791C419.363,168.17,419.936,167.484,420.033,167.549Z" transform="translate(-404.541 -86.743)" fill="#263238"/>
      <path id="Path_30262" data-name="Path 30262" d="M426,159.809a5.026,5.026,0,0,1-1.105,1.662c-.7.807-1.339,1.46-1.436,1.388s.4-.807,1.114-1.654S425.91,159.736,426,159.809Z" transform="translate(-405.617 -85.248)" fill="#263238"/>
      <path id="Path_30263" data-name="Path 30263" d="M432.832,152.838c.081.089-.5.767-1.291,1.517s-1.5,1.291-1.614,1.21.492-.758,1.291-1.517S432.759,152.749,432.832,152.838Z" transform="translate(-406.866 -83.902)" fill="#c7c6c8"/>
      <path id="Path_30264" data-name="Path 30264" d="M440.5,146.78c.064.1-.6.7-1.477,1.348a4.889,4.889,0,0,1-1.719,1c-.073-.089.589-.694,1.477-1.339A4.761,4.761,0,0,1,440.5,146.78Z" transform="translate(-408.293 -82.734)" fill="#c7c6c8"/>
      <path id="Path_30265" data-name="Path 30265" d="M448.913,141.81a9.44,9.44,0,0,1-3.494,1.888c-.056-.1.678-.605,1.614-1.13A4.768,4.768,0,0,1,448.913,141.81Z" transform="translate(-409.86 -81.774)" fill="#c7c6c8"/>
      <path id="Path_30266" data-name="Path 30266" d="M457.958,138.11a5.035,5.035,0,0,1-1.791.871,4.785,4.785,0,0,1-1.937.476,4.914,4.914,0,0,1,1.791-.871A4.655,4.655,0,0,1,457.958,138.11Z" transform="translate(-411.562 -81.059)" fill="#c7c6c8"/>
      <path id="Path_30267" data-name="Path 30267" d="M467.479,135.876a5,5,0,0,1-1.912.533,4.841,4.841,0,0,1-1.977.2A7.931,7.931,0,0,1,467.479,135.876Z" transform="translate(-413.369 -80.625)" fill="#c7c6c8"/>
      <path id="Path_30268" data-name="Path 30268" d="M477.272,135.286a4.906,4.906,0,0,1-1.977.226,4.72,4.72,0,0,1-1.985-.186,4.923,4.923,0,0,1,1.977-.234,4.712,4.712,0,0,1,1.985.194Z" transform="translate(-415.246 -80.471)" fill="#c7c6c8"/>
      <path id="Path_30269" data-name="Path 30269" d="M487.061,136.335a4.9,4.9,0,0,1-1.993-.113,4.793,4.793,0,0,1-1.929-.524,9.578,9.578,0,0,1,3.922.637Z" transform="translate(-417.145 -80.591)" fill="#c7c6c8"/>
      <path id="Path_30270" data-name="Path 30270" d="M496.492,138.987a9.368,9.368,0,0,1-3.752-1.307,5.1,5.1,0,0,1,1.945.452A4.769,4.769,0,0,1,496.492,138.987Z" transform="translate(-418.998 -80.976)" fill="#c7c6c8"/>
      <path id="Path_30271" data-name="Path 30271" d="M505.317,143.287a5.027,5.027,0,0,1-1.824-.807,4.889,4.889,0,0,1-1.614-1.17,4.842,4.842,0,0,1,1.824.807C504.656,142.674,505.382,143.19,505.317,143.287Z" transform="translate(-420.763 -81.677)" fill="#c7c6c8"/>
      <path id="Path_30272" data-name="Path 30272" d="M513.13,149.212a5.057,5.057,0,0,1-1.614-1.154c-.807-.71-1.42-1.372-1.348-1.46s.807.42,1.614,1.146S513.211,149.131,513.13,149.212Z" transform="translate(-422.363 -82.696)" fill="#c7c6c8"/>
      <path id="Path_30273" data-name="Path 30273" d="M518.393,155.055c-.1.065-.444-.234-.807-.67s-.541-.847-.452-.928.436.226.807.67S518.49,154.982,518.393,155.055Z" transform="translate(-423.705 -84.02)" fill="#c7c6c8"/>
      <path id="Path_30274" data-name="Path 30274" d="M564.065,215.283a4.946,4.946,0,0,1-1.912-.662c-1.017-.468-1.8-.936-1.743-1.041a5.261,5.261,0,0,1,1.92.662A5.068,5.068,0,0,1,564.065,215.283Z" transform="translate(-432.065 -95.633)" fill="#c7c6c8"/>
      <path id="Path_30275" data-name="Path 30275" d="M573.457,218.718a9.812,9.812,0,0,1-3.857-1.178A9.684,9.684,0,0,1,573.457,218.718Z" transform="translate(-433.84 -96.398)" fill="#c7c6c8"/>
      <path id="Path_30276" data-name="Path 30276" d="M583.29,220.424a4.988,4.988,0,0,1-2.033,0A4.922,4.922,0,0,1,579.28,220a5.149,5.149,0,0,1,2.025,0,5.075,5.075,0,0,1,1.985.428Z" transform="translate(-435.71 -96.853)" fill="#c7c6c8"/>
      <path id="Path_30277" data-name="Path 30277" d="M593.266,220.206a5,5,0,0,1-1.993.355,4.841,4.841,0,0,1-2.033-.057,5.292,5.292,0,0,1,2-.363A4.922,4.922,0,0,1,593.266,220.206Z" transform="translate(-437.633 -96.886)" fill="#c7c6c8"/>
      <path id="Path_30278" data-name="Path 30278" d="M603.108,218.4a5.18,5.18,0,0,1-1.912.678,5.058,5.058,0,0,1-2.025.2,5.075,5.075,0,0,1,1.937-.605,4.922,4.922,0,0,1,2-.274Z" transform="translate(-439.55 -96.561)" fill="#c7c6c8"/>
      <path id="Path_30279" data-name="Path 30279" d="M612.453,214.71c.056.1-.726.565-1.743,1.041a4.841,4.841,0,0,1-1.92.646A9.813,9.813,0,0,1,612.453,214.71Z" transform="translate(-441.408 -95.851)" fill="#c7c6c8"/>
      <path id="Path_30280" data-name="Path 30280" d="M620.849,209.14c.073.089-.557.75-1.452,1.428a4.453,4.453,0,0,1-1.767,1c-.065-.1.629-.67,1.517-1.331a5.65,5.65,0,0,1,1.7-1.1Z" transform="translate(-443.114 -94.776)" fill="#c7c6c8"/>
      <path id="Path_30281" data-name="Path 30281" d="M627.8,201.839a4.484,4.484,0,0,1-1.073,1.735c-.718.863-1.412,1.46-1.493,1.38s.468-.807,1.17-1.614S627.707,201.774,627.8,201.839Z" transform="translate(-444.583 -93.365)" fill="#c7c6c8"/>
      <path id="Path_30282" data-name="Path 30282" d="M632.708,193a4.309,4.309,0,0,1-.557,1.961,4.488,4.488,0,0,1-1.081,1.727,5.943,5.943,0,0,1,.694-1.9,6.122,6.122,0,0,1,.944-1.783Z" transform="translate(-445.71 -91.659)" fill="#c7c6c8"/>
      <path id="Path_30283" data-name="Path 30283" d="M634.89,183.26a4.26,4.26,0,0,1,.089,2.033,4.181,4.181,0,0,1-.5,1.977,6.283,6.283,0,0,1,.081-2.017A6.135,6.135,0,0,1,634.89,183.26Z" transform="translate(-446.36 -89.778)" fill="#c7c6c8"/>
      <path id="Path_30284" data-name="Path 30284" d="M633.51,173.4a4.4,4.4,0,0,1,.726,1.9,4.292,4.292,0,0,1,.169,2.025,6,6,0,0,1-.581-1.928,6.129,6.129,0,0,1-.315-2Z" transform="translate(-446.181 -87.874)" fill="#c7c6c8"/>
      <path id="Path_30285" data-name="Path 30285" d="M629.16,164.439c.089-.073.7.621,1.267,1.614a4.2,4.2,0,0,1,.758,1.88c-.1.056-.573-.718-1.122-1.67a6.231,6.231,0,0,1-.9-1.824Z" transform="translate(-445.342 -86.143)" fill="#c7c6c8"/>
      <path id="Path_30286" data-name="Path 30286" d="M622.219,157.3a4.213,4.213,0,0,1,1.719,1.1c.855.734,1.412,1.46,1.331,1.541s-.807-.508-1.614-1.227S622.154,157.4,622.219,157.3Z" transform="translate(-444 -84.765)" fill="#c7c6c8"/>
      <path id="Path_30287" data-name="Path 30287" d="M613.15,153.236a4.034,4.034,0,0,1,2.017.331,4.181,4.181,0,0,1,1.816.928,6.311,6.311,0,0,1-1.945-.533,6.608,6.608,0,0,1-1.888-.726Z" transform="translate(-442.25 -83.977)" fill="#c7c6c8"/>
      <path id="Path_30288" data-name="Path 30288" d="M603.23,153.245a3.9,3.9,0,0,1,1.953-.589,4.035,4.035,0,0,1,2.042.065,21.727,21.727,0,0,1-4.035.524Z" transform="translate(-440.327 -83.849)" fill="#c7c6c8"/>
      <path id="Path_30289" data-name="Path 30289" d="M594.618,157.647c-.089-.073.468-.807,1.38-1.509a3.8,3.8,0,0,1,1.824-.928c.056.113-.7.605-1.614,1.267S594.706,157.728,594.618,157.647Z" transform="translate(-438.67 -84.361)" fill="#c7c6c8"/>
      <path id="Path_30290" data-name="Path 30290" d="M590.638,166.275a3.688,3.688,0,0,1,.121-2.041,3.566,3.566,0,0,1,.847-1.864,8.765,8.765,0,0,1-.444,1.961A7.759,7.759,0,0,1,590.638,166.275Z" transform="translate(-437.885 -85.744)" fill="#c7c6c8"/>
      <path id="Path_30291" data-name="Path 30291" d="M592.29,175.989a3.922,3.922,0,0,1-.976-1.791,3.809,3.809,0,0,1-.339-2.017,7.268,7.268,0,0,1,.734,1.88,6.959,6.959,0,0,1,.581,1.928Z" transform="translate(-437.964 -87.638)" fill="#c7c6c8"/>
      <path id="Path_30292" data-name="Path 30292" d="M598.424,183.7a4.034,4.034,0,0,1-1.735-1.081c-.855-.742-1.38-1.5-1.291-1.573s.742.533,1.565,1.259S598.488,183.606,598.424,183.7Z" transform="translate(-438.82 -89.35)" fill="#c7c6c8"/>
      <path id="Path_30293" data-name="Path 30293" d="M607.317,188.1a4.26,4.26,0,0,1-2-.379,4.083,4.083,0,0,1-1.816-.928,6.31,6.31,0,0,1,1.945.533,5.972,5.972,0,0,1,1.872.775Z" transform="translate(-440.387 -90.46)" fill="#c7c6c8"/>
      <path id="Path_30294" data-name="Path 30294" d="M617.185,189.3a7.447,7.447,0,0,1-4.034-.089,6.374,6.374,0,0,1,2.017-.1A5.875,5.875,0,0,1,617.185,189.3Z" transform="translate(-442.25 -90.9)" fill="#c7c6c8"/>
      <path id="Path_30295" data-name="Path 30295" d="M627.065,187.53a7.552,7.552,0,0,1-3.905,1,5.755,5.755,0,0,1,1.912-.637,6.157,6.157,0,0,1,1.993-.363Z" transform="translate(-444.183 -90.603)" fill="#c7c6c8"/>
      <path id="Path_30296" data-name="Path 30296" d="M636.146,183.38a5.059,5.059,0,0,1-1.686,1.13,5,5,0,0,1-1.88.758A9.829,9.829,0,0,1,636.146,183.38Z" transform="translate(-446.002 -89.801)" fill="#c7c6c8"/>
      <path id="Path_30297" data-name="Path 30297" d="M644.253,177.42c.081.089-.557.734-1.42,1.444a5.239,5.239,0,0,1-1.694,1.122c-.073-.1.573-.742,1.428-1.444a5.31,5.31,0,0,1,1.686-1.122Z" transform="translate(-447.654 -88.65)" fill="#c7c6c8"/>
      <path id="Path_30298" data-name="Path 30298" d="M651.22,170.108c.089.073-.428.807-1.154,1.67s-1.388,1.477-1.468,1.4a5.339,5.339,0,0,1,1.146-1.67C650.462,170.641,651.124,170.019,651.22,170.108Z" transform="translate(-449.094 -87.237)" fill="#c7c6c8"/>
      <path id="Path_30299" data-name="Path 30299" d="M656.844,161.769a4.956,4.956,0,0,1-.855,1.84c-.581.96-1.122,1.686-1.219,1.614a5,5,0,0,1,.855-1.84C656.2,162.439,656.739,161.713,656.844,161.769Z" transform="translate(-450.287 -85.628)" fill="#c7c6c8"/>
      <path id="Path_30300" data-name="Path 30300" d="M661.043,152.63a5.2,5.2,0,0,1-.541,1.961,4.566,4.566,0,0,1-.952,1.791,5.76,5.76,0,0,1,.557-1.945A5.076,5.076,0,0,1,661.043,152.63Z" transform="translate(-451.21 -83.863)" fill="#c7c6c8"/>
      <path id="Path_30301" data-name="Path 30301" d="M663.949,143a4.9,4.9,0,0,1-.3,2,5.052,5.052,0,0,1-.71,1.9A9.642,9.642,0,0,1,663.949,143Z" transform="translate(-451.865 -82.004)" fill="#c7c6c8"/>
      <path id="Path_30302" data-name="Path 30302" d="M665.78,133.2a4.841,4.841,0,0,1-.1,2.025,5.094,5.094,0,0,1-.508,1.961,4.837,4.837,0,0,1,.1-2.025,5.149,5.149,0,0,1,.508-1.961Z" transform="translate(-452.284 -80.111)" fill="#c7c6c8"/>
      <path id="Path_30303" data-name="Path 30303" d="M666.757,123.24a9.626,9.626,0,0,1-.3,4.034,5.222,5.222,0,0,1-.057-2.033A5.092,5.092,0,0,1,666.757,123.24Z" transform="translate(-452.519 -78.188)" fill="#c7c6c8"/>
      <path id="Path_30304" data-name="Path 30304" d="M667.112,113.25a9.812,9.812,0,0,1-.081,4.034,5.287,5.287,0,0,1-.17-2.025,5.157,5.157,0,0,1,.25-2.009Z" transform="translate(-452.616 -76.259)" fill="#263238"/>
      <path id="Path_30305" data-name="Path 30305" d="M667.059,103.25a5.061,5.061,0,0,1,.242,2.017,4.839,4.839,0,0,1-.186,2.017,5.091,5.091,0,0,1-.242-2.017,5.19,5.19,0,0,1,.186-2.017Z" transform="translate(-452.619 -74.328)" fill="#263238"/>
      <path id="Path_30306" data-name="Path 30306" d="M666.954,97.1c.113,0,.218.2.226.46s-.081.46-.2.468-.218-.2-.218-.46S666.808,97.1,666.954,97.1Z" transform="translate(-452.602 -73.14)" fill="#263238"/>
      <rect id="Rectangle_2693" data-name="Rectangle 2693" width="55.167" height="37.19" transform="translate(177.154 5.958) rotate(-6.2)" fill="#a7cf45"/>
      <path id="Path_30307" data-name="Path 30307" d="M624.885,110.383h0L620.85,73.395h0l54.869-5.955h0l4.034,37h0Zm-3.97-36.972,4.034,36.932,54.8-5.955-4.034-36.932Z" transform="translate(-443.737 -67.413)" fill="#263238"/>
      <path id="Path_30308" data-name="Path 30308" d="M676.015,68a3.774,3.774,0,0,1-.46.549l-1.38,1.509-5.156,5.471L651.84,93.458l-.137.153-.178-.113-.42-.266L629.9,79.668l-6.455-4.156-1.727-1.154a4.767,4.767,0,0,1-.589-.428,3.636,3.636,0,0,1,.646.339l1.775,1.073,6.455,4.034,21.31,13.443.42.266h-.315l17.348-17.824,5.269-5.358,1.444-1.436a3.935,3.935,0,0,1,.533-.468Z" transform="translate(-443.791 -67.521)" fill="#263238"/>
      <path id="Path_30309" data-name="Path 30309" d="M626.149,115.332c-.113-.073,3.462-5.592,7.98-12.313s8.287-12.1,8.4-12.039-3.453,5.592-7.98,12.313S626.262,115.413,626.149,115.332Z" transform="translate(-444.76 -71.958)" fill="#263238"/>
      <path id="Path_30310" data-name="Path 30310" d="M669,88c.1-.1,4.728,4.494,10.328,10.248s10.062,10.49,9.965,10.595-4.72-4.486-10.328-10.248S668.886,88.056,669,88Z" transform="translate(-453.034 -71.383)" fill="#263238"/>
    </g>
    <g id="freepik--envelope-1--inject-2" transform="translate(-23444.143 -7963.022) rotate(17)">
      <path id="Path_30334" data-name="Path 30334" d="M.034,0a5.253,5.253,0,0,1,.6,1.977A5.2,5.2,0,0,1,.817,4.034a5.317,5.317,0,0,1-.6-1.977A5.019,5.019,0,0,1,.035,0Z" transform="translate(210.952 78.965)" fill="#263238"/>
      <path id="Path_30335" data-name="Path 30335" d="M0,0A10.07,10.07,0,0,1,1.251,3.913a5.181,5.181,0,0,1-.807-1.9A5.124,5.124,0,0,1,0,0Z" transform="translate(208.751 71.066)" fill="#263238"/>
      <path id="Path_30336" data-name="Path 30336" d="M0,0A5.1,5.1,0,0,1,1.033,1.783a5.277,5.277,0,0,1,.654,1.961A5.3,5.3,0,0,1,.654,1.961,5.189,5.189,0,0,1,0,0Z" transform="translate(205.613 63.489)" fill="#263238"/>
      <path id="Path_30337" data-name="Path 30337" d="M0,0C.1-.061.678.666,1.291,1.618A5.365,5.365,0,0,1,2.162,3.5c-.1.056-.654-.686-1.235-1.662A5.2,5.2,0,0,1,0,0Z" transform="translate(201.538 56.36)" fill="#263238"/>
      <path id="Path_30338" data-name="Path 30338" d="M0,.007C.089-.074.75.572,1.477,1.443A5.309,5.309,0,0,1,2.63,3.162c-.1.065-.75-.581-1.477-1.444A5.236,5.236,0,0,1,0,.007Z" transform="translate(196.511 49.878)" fill="#263238"/>
      <path id="Path_30339" data-name="Path 30339" d="M.01.009c.073-.089.807.46,1.662,1.218s1.46,1.452,1.38,1.533A5.253,5.253,0,0,1,1.39,1.543C.534.784-.087.1.01.009Z" transform="translate(190.627 44.162)" fill="#263238"/>
      <path id="Path_30340" data-name="Path 30340" d="M0,0A5.116,5.116,0,0,1,1.828.96,5.729,5.729,0,0,1,3.441,2.275a5.342,5.342,0,0,1-1.824-.968C.658.686-.061.1,0,0Z" transform="translate(183.96 39.379)" fill="#263238"/>
      <path id="Path_30341" data-name="Path 30341" d="M0,0A5.124,5.124,0,0,1,1.953.67,5.188,5.188,0,0,1,3.728,1.719a5.124,5.124,0,0,1-1.953-.67A5.293,5.293,0,0,1,0,0Z" transform="translate(176.653 35.651)" fill="#c7c6c8"/>
      <path id="Path_30342" data-name="Path 30342" d="M0,0A5.317,5.317,0,0,1,2.041.334a5.164,5.164,0,0,1,1.928.742A5.447,5.447,0,0,1,1.929.746,5.325,5.325,0,0,1,0,0Z" transform="translate(168.85 33.17)" fill="#c7c6c8"/>
      <path id="Path_30343" data-name="Path 30343" d="M0,.116A8.384,8.384,0,0,1,4.091.447,12.781,12.781,0,0,1,0,.116Z" transform="translate(160.693 32.017)" fill="#c7c6c8"/>
      <path id="Path_30344" data-name="Path 30344" d="M0,.522A10.11,10.11,0,0,1,4.083.038,5.116,5.116,0,0,1,2.066.49,5.374,5.374,0,0,1,0,.522Z" transform="translate(152.511 32.176)" fill="#c7c6c8"/>
      <path id="Path_30345" data-name="Path 30345" d="M0,1.226A5.1,5.1,0,0,1,1.9.42,5.043,5.043,0,0,1,3.913,0a5.269,5.269,0,0,1-1.9.807A5.358,5.358,0,0,1,0,1.226Z" transform="translate(144.587 33.585)" fill="#c7c6c8"/>
      <path id="Path_30346" data-name="Path 30346" d="M0,1.969c-.056-.1.7-.621,1.711-1.162A5.1,5.1,0,0,1,3.618,0,10.376,10.376,0,0,1,0,1.961Z" transform="translate(137.193 36.401)" fill="#c7c6c8"/>
      <path id="Path_30347" data-name="Path 30347" d="M.007,2.63c-.081-.081.565-.742,1.436-1.477A5.31,5.31,0,0,1,3.162,0c.065.1-.581.758-1.444,1.477A5.067,5.067,0,0,1,.007,2.63Z" transform="translate(130.637 40.662)" fill="#c7c6c8"/>
      <path id="Path_30348" data-name="Path 30348" d="M0,3.257A4.624,4.624,0,0,1,1.041,1.466c.7-.9,1.388-1.533,1.469-1.46A6.5,6.5,0,0,1,1.372,1.724C.678,2.636.1,3.322,0,3.257Z" transform="translate(125.278 46.232)" fill="#c7c6c8"/>
      <path id="Path_30349" data-name="Path 30349" d="M.04,1.815c-.1-.048,0-.492.25-1S.815-.057.92.007s0,.5-.25,1S.145,1.871.04,1.815Z" transform="translate(122.244 52.992)" fill="#c7c6c8"/>
      <path id="Path_30350" data-name="Path 30350" d="M0,.361C0,.248.428.1.976.03S1.985.03,2,.118,1.59.385,1.025.449.008.5,0,.361Z" transform="translate(71.014 102.053)" fill="#c7c6c8"/>
      <path id="Path_30351" data-name="Path 30351" d="M0,0A6.383,6.383,0,0,1,2,.3,6.237,6.237,0,0,1,3.954.831,6.915,6.915,0,0,1,0,.025Z" transform="translate(63.026 101.526)" fill="#c7c6c8"/>
      <path id="Path_30352" data-name="Path 30352" d="M0,0A6.084,6.084,0,0,1,1.812.92c.952.565,1.719,1.041,1.67,1.154A4.5,4.5,0,0,1,1.6,1.267C.634.7-.06.1,0,0Z" transform="translate(55.792 97.951)" fill="#c7c6c8"/>
      <path id="Path_30353" data-name="Path 30353" d="M.01.006C.1-.067.76.546,1.543,1.337S2.931,2.8,2.858,2.886s-.807-.452-1.614-1.251S-.079.087.01.006Z" transform="translate(49.783 92.555)" fill="#c7c6c8"/>
      <path id="Path_30354" data-name="Path 30354" d="M0,0C.1-.053.678.649,1.283,1.617a5.18,5.18,0,0,1,.936,1.8c-.1.073-.67-.637-1.283-1.573A4.987,4.987,0,0,1,0,0Z" transform="translate(45.048 86.022)" fill="#c7c6c8"/>
      <path id="Path_30355" data-name="Path 30355" d="M0,0A5.067,5.067,0,0,1,.984,1.775,5.366,5.366,0,0,1,1.59,3.72,5.011,5.011,0,0,1,.6,1.945,5.156,5.156,0,0,1,0,0Z" transform="translate(41.563 78.739)" fill="#c7c6c8"/>
      <path id="Path_30356" data-name="Path 30356" d="M.007,0A5.132,5.132,0,0,1,.725,1.9a5,5,0,0,1,.307,2.009,4.906,4.906,0,0,1-.718-1.9A5.019,5.019,0,0,1,.007,0Z" transform="translate(39.24 70.993)" fill="#c7c6c8"/>
      <path id="Path_30357" data-name="Path 30357" d="M.064,0A5.277,5.277,0,0,1,.572,1.969,5.075,5.075,0,0,1,.669,4,5,5,0,0,1,.161,2.033,4.906,4.906,0,0,1,.064,0Z" transform="translate(37.779 63.029)" fill="#c7c6c8"/>
      <path id="Path_30358" data-name="Path 30358" d="M.133,0A9.78,9.78,0,0,1,.455,4.034,5,5,0,0,1,.084,2.041,4.922,4.922,0,0,1,.133,0Z" transform="translate(36.936 54.984)" fill="#c7c6c8"/>
      <path id="Path_30359" data-name="Path 30359" d="M.166,0C.287,0,.4.444.424,1S.376,2.009.263,2.017s-.234-.444-.258-1S.053.008.166,0Z" transform="translate(36.563 48.924)" fill="#c7c6c8"/>
      <g id="Group_25383" data-name="Group 25383" transform="translate(0 0)">
        <rect id="Rectangle_2695" data-name="Rectangle 2695" width="67.166" height="45.275" transform="translate(0.025 3.164) rotate(-2.7)" fill="#a7cf45"/>
        <path id="Path_30360" data-name="Path 30360" d="M2.13,48.406h0L0,3.163H0L67.118,0h0l2.13,45.243h0ZM.04,3.163l2.13,45.186,67.053-3.163L67.093,0Z" transform="translate(0 0.002)" fill="#263238"/>
        <path id="Path_30361" data-name="Path 30361" d="M67.093,0a4.422,4.422,0,0,1-.6.629L64.7,2.356l-6.657,6.27L35.826,29.177l-.186.169-.2-.145-.484-.355-24.8-18.058C7.044,8.48,4.511,6.6,2.687,5.261L.678,3.728A4.421,4.421,0,0,1,0,3.163a5.536,5.536,0,0,1,.75.468l2.082,1.42,7.585,5.374L35.31,28.338l.492.355h-.387L57.75,8.279l6.794-6.124L66.416.541A4.149,4.149,0,0,1,67.093,0Z" transform="translate(0.258 0.535)" fill="#263238"/>
        <path id="Path_30362" data-name="Path 30362" d="M0,28.388c-.129-.1,4.624-6.544,10.619-14.379S21.587-.1,21.716,0,17.1,6.545,11.105,14.38.14,28.485,0,28.388Z" transform="translate(2.384 20.537)" fill="#263238"/>
        <path id="Path_30363" data-name="Path 30363" d="M0,0c.129-.113,5.406,5.81,11.781,13.217s11.45,13.507,11.3,13.62-5.4-5.81-11.781-13.225S-.127.115,0,0Z" transform="translate(46.376 18.923)" fill="#263238"/>
      </g>
    </g>
    <g id="freepik--Character--inject-2" transform="translate(-23502.375 -7833.086)">
      <path id="Path_30364" data-name="Path 30364" d="M226.473,287.15a1.832,1.832,0,0,0-1.388-2.041l-1.8.121-6.455-2.235a1.928,1.928,0,0,0-2.421,1.751c0,1.848-.807,6.883-2.267,5.3l-.113-.1c-2.122-2.364-4.575-3.51-5.519-3.373a1.081,1.081,0,0,0-.468,1.9,1.139,1.139,0,0,0,.387.266c.065,0,.145.081.21.113a16.308,16.308,0,0,1,2.461,2.2,8.554,8.554,0,0,1,1.614,2.421c.428,1,.766,1.872,1.033,2.622l.1,5.915-2.566,27.652s-17.026-17.881-16.63-18.05l.992,27.854L203.953,348a12.967,12.967,0,0,0,21.254-10.207l-.589-35.754.42-4.688Z" transform="translate(-77.908 -221.944)" fill="#ffbe9d"/>
      <path id="Path_30365" data-name="Path 30365" d="M103.431,336.88,84.783,379.516,70.066,410.275l-10.95,3.679s-8.666,2.518-8.666,4.309,2.284,1.388,2.284,1.388c.42,2.679,4.131,1.162,6.73,0s8.376-1.485,8.376-1.485a2.348,2.348,0,0,0-.161,3.76c.92.646,2.518-.137,3.6-1.291s3.873-1.686,6.98-2.8,3.615-5.277,3.615-5.277l37.287-62.833Z" transform="translate(-50.45 -232.362)" fill="#ffbe9d"/>
      <path id="Path_30366" data-name="Path 30366" d="M175.353,346.208l4.688,6.189L190.2,329.861s-9.86-12.031-13.467-17.074-6.253-5.874-6.253-5.874S163.928,305,160.66,305l-16.186.968-16.436,7.173a22.771,22.771,0,0,0-9.9,8.335l-15.476,24.86,21.915,9.368,7.351,42.088c1.4,6.3,2.639,12.249,8.456,15.154l40.643-39.062-4.761-7.5Z" transform="translate(-60.532 -226.206)" fill="#23c2f2"/>
      <g id="Group_24111" data-name="Group 24111" transform="translate(64.124 118.042)" opacity="0.1">
        <path id="Path_30371" data-name="Path 30371" d="M132.68,381.365c-.073-.4,5.213-27.725,5.213-27.725l-7.972,11.966" transform="translate(-129.92 -353.64)"/>
      </g>
      <g id="Group_24112" data-name="Group 24112" transform="translate(80.485 143.474)" opacity="0.1">
        <path id="Path_30373" data-name="Path 30373" d="M151.055,407.454c-1.307-1.081-1.009-3.292.145-4.535s2.873-1.751,4.486-2.3c7.722-2.5,15.484-6.036,20.576-12.362a12.466,12.466,0,0,1,2.284-2.421,3.155,3.155,0,0,1,3.171-.436c1.557.807,1.614,3.066.96,4.7a9.021,9.021,0,0,1-4.252,4.648" transform="translate(-150.197 -385.158)"/>
      </g>
      <g id="Group_24113" data-name="Group 24113" transform="translate(113.95 98.628)" opacity="0.1">
        <path id="Path_30374" data-name="Path 30374" d="M191.67,329.58l4.511,26.176-3.518-4.64Z" transform="translate(-191.67 -329.58)"/>
      </g>
      <path id="Path_30375" data-name="Path 30375" d="M243.025,414.79,235.4,440.95l32.494,9.683c.734-3.163-14.226-14.387-14.226-14.387l5.616-16.59Z" transform="translate(-86.165 -247.407)" fill="#221e26"/>
      <g id="Group_24115" data-name="Group 24115" transform="translate(149.235 190.937)" opacity="0.6">
        <path id="Path_30377" data-name="Path 30377" d="M235.4,446.586l.871-2.606L267.1,454.211s1.259,1.057.807,2.025Z" transform="translate(-235.4 -443.98)" fill="#fff"/>
      </g>
      <path id="Path_30384" data-name="Path 30384" d="M260,364.495c.807,6.036-1.243,12.838-3.429,18.559l-14.25,33.47L226.548,414.1a20.259,20.259,0,0,1-7.488,5.067c-1.88.621-8.069,1.84-13.16-1.824h0s-7.206,10.038-18.559,13.072-28.5,4.712-36.811-8.553l39.538-38.118c.807.194,34.075-22.238,52.045-27.346C242.145,356.4,258.485,353.4,260,364.495Z" transform="translate(-69.776 -236.06)" fill="#fff"/>
      <path id="Path_30385" data-name="Path 30385" d="M232.536,419.754a2.038,2.038,0,0,1,.21-.129l.646-.339c.573-.307,1.412-.734,2.477-1.323a40.264,40.264,0,0,0,3.776-2.324,19.891,19.891,0,0,0,4.268-3.962,13.717,13.717,0,0,0,2.768-6.407,21.287,21.287,0,0,0-.339-8.069,13.032,13.032,0,0,0-4.349-7.577,16.468,16.468,0,0,0-8.876-3.163,27.358,27.358,0,0,0-4.882.04,36.68,36.68,0,0,0-4.688.807,55.832,55.832,0,0,0-8.513,2.945c-5.269,2.308-9.844,4.793-13.862,6.512a49.346,49.346,0,0,1-9.8,3.268c-.6.137-1.138.226-1.614.29s-.855.137-1.178.161l-.726.073h-.25l.25-.056.718-.1c.315-.048.71-.1,1.17-.2s.992-.178,1.614-.323a51.807,51.807,0,0,0,9.683-3.389c3.986-1.743,8.545-4.252,13.83-6.592a55.679,55.679,0,0,1,8.569-2.986,37.442,37.442,0,0,1,4.736-.807,28.283,28.283,0,0,1,4.962-.04,16.8,16.8,0,0,1,9.134,3.268,11.49,11.49,0,0,1,2.961,3.6,16.379,16.379,0,0,1,1.509,4.212,21.835,21.835,0,0,1,.307,8.206,14.113,14.113,0,0,1-2.881,6.528,19.659,19.659,0,0,1-4.373,3.97,39.709,39.709,0,0,1-3.825,2.275c-1.081.565-1.937.976-2.518,1.251l-.67.307a1.026,1.026,0,0,1-.242.081Z" transform="translate(-76.934 -241.841)" fill="#908e92"/>
      <path id="Path_30386" data-name="Path 30386" d="M253.883,373.35a46.538,46.538,0,0,1-3.308,5.4,48.839,48.839,0,0,1-3.655,5.164,47.943,47.943,0,0,1,3.308-5.4A48.832,48.832,0,0,1,253.883,373.35Z" transform="translate(-88.389 -239.404)" fill="#908e92"/>
      <path id="Path_30387" data-name="Path 30387" d="M236.9,424.54a27.9,27.9,0,0,1-2.864.742c-1.767.436-4.2,1.105-6.826,2.025s-4.946,1.912-6.6,2.671a28.527,28.527,0,0,1-2.7,1.21,3.224,3.224,0,0,1,.662-.444c.444-.266,1.1-.621,1.912-1.033a55.075,55.075,0,0,1,13.491-4.72c.9-.186,1.614-.315,2.138-.379A3.229,3.229,0,0,1,236.9,424.54Z" transform="translate(-82.787 -249.289)" fill="#908e92"/>
      <path id="Path_30388" data-name="Path 30388" d="M261.352,427.039c-.073,0-.258-.71-.928-1.695a6.834,6.834,0,0,0-8.117-2.639c-1.122.4-1.711.9-1.759.807s.113-.161.387-.379a5.717,5.717,0,0,1,1.259-.726,6.722,6.722,0,0,1,8.481,2.792,5.56,5.56,0,0,1,.589,1.331C261.4,426.813,261.4,427.039,261.352,427.039Z" transform="translate(-89.088 -248.771)" fill="#908e92"/>
      <path id="Path_30389" data-name="Path 30389" d="M177.02,412.79a2.171,2.171,0,0,1,.21.75,12.247,12.247,0,0,1,.178,2.122,13.137,13.137,0,0,1-1.856,6.746,10.328,10.328,0,0,1-5.406,4.389,7.763,7.763,0,0,1-2.1.4,2.164,2.164,0,0,1-.807,0,15.077,15.077,0,0,0,2.784-.646,10.489,10.489,0,0,0,5.148-4.333,13.8,13.8,0,0,0,1.92-6.52C177.189,413.887,176.947,412.8,177.02,412.79Z" transform="translate(-73.003 -247.02)" fill="#908e92"/>
      <path id="Path_30413" data-name="Path 30413" d="M212.89,254.948s5.277-1.614,12.289-9.4,9.836-17.752,10.764-17.752,4.841-2.195,13.717,13.927,6.181,20.229,4.656,20.31-12.1-2.033-18.559-.807-14.524,5.213-14.524,5.213Z" transform="translate(-81.818 -211.278)" fill="#bbb"/>
      <path id="Path_30414" data-name="Path 30414" d="M199.431,270.637l2.09,3.349.936,1.493a4.559,4.559,0,0,0,6.076,1.573l11.2-4.841L211.9,257.42l-11.038,6.923a4.559,4.559,0,0,0-1.428,6.294Z" transform="translate(-79.083 -217.018)" fill="#908e92"/>
      <path id="Path_30415" data-name="Path 30415" d="M208.33,279.308l4.2,6.907,1.791-.645,12.692,8.876,2.832-6.826s-7.262-2.526-8.8-4.946,0-3.107,0-3.107L217.448,276Z" transform="translate(-80.937 -220.606)" fill="#908e92"/>
      <path id="Path_30416" data-name="Path 30416" d="M254.69,242.158c4.753,8.739,7.052,16.67,5.132,17.752s-7.327-5.188-12.1-13.927-7.052-16.67-5.132-17.752S249.93,233.411,254.69,242.158Z" transform="translate(-87.421 -211.358)" fill="#908e92"/>
      <path id="Path_30417" data-name="Path 30417" d="M198.51,278.988l3.05-1.21-2.2-3.518-2.227,1.622Z" transform="translate(-78.775 -220.27)" fill="#bbb"/>
      <path id="Path_30418" data-name="Path 30418" d="M218.964,277.54l-7.98,5.963-1.194-1.969Z" transform="translate(-81.219 -220.903)" fill="#bbb"/>
      <path id="Path_30419" data-name="Path 30419" d="M199.826,274.26l2.2,3.518-.629.25-1.84-3.575Z" transform="translate(-79.244 -220.27)" fill="#455a64"/>
      <path id="Path_30423" data-name="Path 30423" d="M247.24,243.586s4.454-3.228,7.472,2.873-1.807,7.512-1.807,7.512a42.046,42.046,0,0,1-5.664-10.385Z" transform="translate(-88.451 -214.182)" fill="#bbb"/>
      <path id="Path_30425" data-name="Path 30425" d="M224.8,280.426a1.364,1.364,0,0,1,.944,1.654c-.347,1.372-.912,3.526-1.364,4.841a3.623,3.623,0,0,1-.605,1.194,1.13,1.13,0,0,1-2.058-.581,3.6,3.6,0,0,1,.121-1.4c.282-1.283.807-3.228,1.259-4.769a1.364,1.364,0,0,1,1.7-.936Z" transform="translate(-83.518 -221.449)" fill="#ffbe9d"/>
      <path id="Path_30426" data-name="Path 30426" d="M227.507,283.185a1.364,1.364,0,0,1,.944,1.654c-.347,1.372-.912,3.526-1.372,4.841a3.476,3.476,0,0,1-.605,1.194,1.234,1.234,0,0,1-1.194.452,1.267,1.267,0,0,1-.855-1.041,3.768,3.768,0,0,1,.113-1.4c.29-1.275.807-3.228,1.259-4.769a1.38,1.38,0,0,1,1.711-.936Z" transform="translate(-84.041 -221.981)" fill="#ffbe9d"/>
      <path id="Path_30427" data-name="Path 30427" d="M230.214,284.849a1.194,1.194,0,0,1,.807,1.436c-.3,1.186-.807,3.05-1.186,4.188a3.091,3.091,0,0,1-.524,1.041.976.976,0,0,1-1.775-.508,3.122,3.122,0,0,1,.1-1.218c.25-1.105.7-2.768,1.089-4.131a1.194,1.194,0,0,1,1.477-.807Z" transform="translate(-84.642 -222.305)" fill="#ffbe9d"/>
      <path id="Path_30428" data-name="Path 30428" d="M233.18,285.18a1.194,1.194,0,0,1,.807,1.444c-.3,1.194-.807,3.066-1.194,4.212a3.018,3.018,0,0,1-.524,1.041.976.976,0,0,1-1.783-.508,3.164,3.164,0,0,1,.1-1.226c.25-1.105.7-2.784,1.1-4.147a1.194,1.194,0,0,1,1.485-.807Z" transform="translate(-85.211 -222.371)" fill="#ffbe9d"/>
      <path id="Path_30429" data-name="Path 30429" d="M224.6,288.793a8.36,8.36,0,0,1,.589-2.582,8.528,8.528,0,0,1,1-2.461,8.238,8.238,0,0,1-.6,2.582,8.659,8.659,0,0,1-.992,2.461Z" transform="translate(-84.079 -222.102)" fill="#eb996e"/>
      <path id="Path_30430" data-name="Path 30430" d="M230.23,291.059A33.082,33.082,0,0,1,231.739,286a11.24,11.24,0,0,1-1.509,5.067Z" transform="translate(-85.166 -222.537)" fill="#eb996e"/>
      <path id="Path_30431" data-name="Path 30431" d="M227.44,290.7a33.517,33.517,0,0,1,1.509-5.075A11.232,11.232,0,0,1,227.44,290.7Z" transform="translate(-84.627 -222.463)" fill="#eb996e"/>
      <path id="Path_30432" data-name="Path 30432" d="M274.633,207.35c.089.065-3.228,4.559-7.391,10.03s-7.633,9.852-7.722,9.78,3.228-4.559,7.383-10.03S274.536,207.277,274.633,207.35Z" transform="translate(-90.822 -207.349)" fill="#221e26"/>
      <path id="Path_30433" data-name="Path 30433" d="M297.6,223.219c.048.1-6.907,3.437-15.541,7.44s-15.662,7.165-15.71,7.06,6.907-3.437,15.533-7.44S297.536,223.115,297.6,223.219Z" transform="translate(-92.141 -210.413)" fill="#221e26"/>
      <path id="Path_30434" data-name="Path 30434" d="M295.789,255.725c0,.113-4.97-.266-11.071-.855s-11.046-1.162-11.038-1.275,4.97.266,11.079.855S295.805,255.613,295.789,255.725Z" transform="translate(-93.557 -216.275)" fill="#221e26"/>
      <path id="Path_30435" data-name="Path 30435" d="M143.354,270.656l5.479,31.146a10.248,10.248,0,0,0,11.539,8.295h0a10.135,10.135,0,0,0,8.714-11.652l-.888-5.358s7.665-2.082,6.867-9.78c-.387-3.712-1.807-11.3-3.179-18.123A14.694,14.694,0,0,0,155.118,253.7h0a14.33,14.33,0,0,0-11.765,16.953Z" transform="translate(-68.336 -216.262)" fill="#ffbe9d"/>
      <path id="Path_30436" data-name="Path 30436" d="M171.72,302.173a18.5,18.5,0,0,1-10.49-1.7s3.042,5.269,10.74,3.655Z" transform="translate(-71.842 -225.331)" fill="#eb996e"/>
      <path id="Path_30445" data-name="Path 30445" d="M171.383,250.794a2.719,2.719,0,0,0-3.542.218,2.421,2.421,0,0,0-.686-3.228,4.164,4.164,0,0,0-3.526-.508,11.97,11.97,0,0,0-3.3,1.614,1.243,1.243,0,0,0-.541-1.259,2.986,2.986,0,0,0-1.388-.436,10.578,10.578,0,0,0-5.818,1.307,36.314,36.314,0,0,0-5.382,3.655h0a25.718,25.718,0,0,0-4.922,5.261l-.065.056a8.608,8.608,0,0,0-1.928,5.584c.637,5.543,2.477,8.747,3.51,13.992a1.839,1.839,0,0,0,.4.976c.637.662,1.783.1,2.421-.6a9.909,9.909,0,0,0,2.05-6.237c.073-2.227-.25-4.446-.194-6.673v-.161a12.508,12.508,0,0,1,.161-1.694c.1-.363,1.041-3.542,4.1-4.035,3.228-.549,9.642,2.6,12.814,2.1s3.341-2.735,3.341-2.735l1.864,3.792a11.482,11.482,0,0,0,.3-4.736,5.382,5.382,0,0,0,1.614-2.768A3.558,3.558,0,0,0,171.383,250.794Z" transform="translate(-67.794 -215.023)" fill="#221e26"/>
      <path id="Path_30446" data-name="Path 30446" d="M146.032,278.84c-.137-.04-5.543-.952-4.761,4.285s5.963,3.381,5.947,3.228S146.032,278.84,146.032,278.84Z" transform="translate(-67.973 -221.138)" fill="#ffbe9d"/>
    </g>
  </g>
</svg>
