<svg xmlns="http://www.w3.org/2000/svg" xmlns:xlink="http://www.w3.org/1999/xlink" width="536" height="430" viewBox="0 0 536 430">
  <defs>
    <clipPath id="clip-path">
      <rect id="Rectangle_2768" data-name="Rectangle 2768" width="536" height="430" transform="translate(1217.467 84.034)" fill="#fff" stroke="#707070" stroke-width="1"/>
    </clipPath>
    <linearGradient id="linear-gradient" x1="0.492" y1="1.236" x2="0.514" y2="-0.278" gradientUnits="objectBoundingBox">
      <stop offset="0" stop-color="#001462"/>
      <stop offset="0.069" stop-color="#081e71"/>
      <stop offset="0.252" stop-color="#193595"/>
      <stop offset="0.437" stop-color="#2748b0"/>
      <stop offset="0.623" stop-color="#3055c4"/>
      <stop offset="0.81" stop-color="#365cd0"/>
      <stop offset="1" stop-color="#385fd4"/>
    </linearGradient>
  </defs>
  <g id="Group_31" data-name="Group 31" transform="translate(-1217.467 -84.034)" clip-path="url(#clip-path)">
    <circle id="Ellipse_1293" data-name="Ellipse 1293" cx="266.5" cy="266.5" r="266.5" transform="translate(1219.467 109.034)" fill="rgba(255,255,255,0.5)"/>
    <g id="OBJECTS" transform="translate(1108.668 108.622)">
      <g id="Group_27851" data-name="Group 27851" transform="translate(146.167 139.607)">
        <g id="Group_27843" data-name="Group 27843" transform="translate(116.917 23.844)">
          <path id="Path_32709" data-name="Path 32709" d="M284.131,374.132c2.612,11.04,6.458,23.429,10.437,35.119h66.125c1.492-4.8,2.975-9.969,4.382-15.45,8.122-31.647-.431-59.008-8.122-71.416s-14.321-27.15-2.583-45.241,12.848-32.154,12.848-32.154c-1.712-6.84-7.06-9.194-20.942-15.823,0,0-.832-.277-2.114-.708-2.937,11.939-9.146,21.439-20.138,23.372-14.321,2.526-27.246-6.209-33.79-21.544-6.3,1.866-13.326,3.846-16.675,5.73,0,0,17.536,38.056,20.875,59.582S276.133,340.352,284.131,374.132Z" transform="translate(-268.604 -167.301)" fill="#fff" stroke="#221e26" stroke-width="1"/>
          <g id="Group_27842" data-name="Group 27842" transform="translate(21.631 36.85)">
            <path id="Path_32710" data-name="Path 32710" d="M324.78,250.731c10.992-1.932,17.191-11.432,20.138-23.372-4.6-1.559-15.422-5.271-18.426-6.773-3.846-1.923-2.784-17.536-2.784-17.536l-20.32,5.8V224c0,1.416-5.807,3.234-12.4,5.176C297.534,244.522,310.458,253.256,324.78,250.731Z" transform="translate(-290.99 -203.05)" fill="#ffbe9d"/>
            <path id="Path_32711" data-name="Path 32711" d="M324.28,203.32l-20.32,5.8v12.877a41.419,41.419,0,0,1,21.5,28.978c10.925-1.98,17.105-11.451,20.033-23.352-4.6-1.559-15.422-5.271-18.426-6.773C323.208,218.923,324.28,203.32,324.28,203.32Z" transform="translate(-291.552 -203.062)" fill="rgba(0,0,0,0.05)"/>
          </g>
          <path id="Path_32712" data-name="Path 32712" d="M335.76,301.939c-9.069,2.774-17.622,5.826-22.157,5.826-8.983,0-22.233-12.618-28.509-4.9s-7.2,12.81-2.3,16.235,20.53-1.282,28.021.21c3.339.67,14.733,1.253,26.835,1.062C338.687,315.562,338.534,306.77,335.76,301.939Z" transform="translate(-268.868 -170.416)" fill="#ffbe9d"/>
          <path id="Path_32713" data-name="Path 32713" d="M371.1,245.632c-2.1-8.428-19.459,7.06-15.182,21.171,3.664,12.1,2.334,28.356,2.334,28.356l16.991,17.182C381.022,305.29,372.814,252.472,371.1,245.632Z" transform="translate(-272.143 -167.941)" fill="#fff" stroke="#221e26" stroke-width="1"/>
          <path id="Path_32714" data-name="Path 32714" d="M363.183,297.58c-6.572-.957-15.976,1.5-24.883,4.229,2.774,4.822,2.927,13.623,1.894,18.426,15.01-.23,31.121-1.645,34.316-5.549C374.51,314.686,382.211,300.364,363.183,297.58Z" transform="translate(-271.409 -170.286)" fill="#fff" stroke="#221e26" stroke-width="1"/>
          <path id="Path_32715" data-name="Path 32715" d="M298.957,178.51c-3.568,6.936-3.167,30.518,6.735,32.7,8.658,1.9,13.48-6.544,13.48-6.544V189.023a11.451,11.451,0,0,1-5.549-8.534c-.536-4.793-3.367-5.3-3.367-5.3S304.3,178.711,298.957,178.51Z" transform="translate(-269.615 -164.993)" fill="#ffbe9d"/>
          <path id="Path_32716" data-name="Path 32716" d="M282.319,295.879c-4.477-9.012-7.443-20.368-10.064-26.768-4.946-12.092-5.75-28.958,1.091-32.8,12.619-6.458,17.957,15.756,18.818,22.2s2.564,21.516,7.271,26.921Z" transform="translate(-268.379 -167.59)" fill="#fff" stroke="#221e26" stroke-width="1"/>
          <path id="Path_32717" data-name="Path 32717" d="M339.387,214.832c-8.553-5.348.976-34.823-13.355-46.159-11.805-9.337-30.642-2.315-30.642,15.316v42.266c4.669-1.454,8.189-2.8,8.189-3.913V209.924c-7.873-5.013-8.036-25.381-4.688-31.876,5.348.2,11.3-3.32,11.3-3.32s2.832.507,3.367,5.3a11.426,11.426,0,0,0,5.549,8.534V204.2c0,14.685,3.54,30.747,11.911,31.637s9.8-10.15,16.206-9.442C347.223,226.408,347.94,220.17,339.387,214.832Z" transform="translate(-269.55 -164.531)" fill="#221e26"/>
          <path id="Path_32718" data-name="Path 32718" d="M295.176,276.35c-4.669,6.381-11.987,11.958-12.226,21.315,3.97,7.988,9.127,14.13,16.263,13.326,10.523-1.186,14.159-13.556,15.4-24.893C307.584,286.644,298.63,281.086,295.176,276.35Z" transform="translate(-269.011 -169.376)" fill="#fff" stroke="#221e26" stroke-width="1"/>
          <path id="Path_32719" data-name="Path 32719" d="M311.611,216.127c-2.009.909-9.117,7.108-9.117,8.658s3.2,13.221,3.2,16.77-3.262,19.047-7.539,28.212a23.836,23.836,0,0,1-2.42,3.97c3.454,4.736,12.408,10.294,19.43,9.749a122.661,122.661,0,0,0,.631-13.384s.717-25.916,1.894-27.753c1.071-1.684,1.062-4.449,1.062-6.812v-4.8s1.636-.105,1.722-2.908v-.258C320.479,224.517,313.62,215.218,311.611,216.127Z" transform="translate(-269.564 -166.764)" fill="#ffbe9d"/>
        </g>
        <g id="Group_27848" data-name="Group 27848" transform="translate(167.698 12.972)">
          <g id="Group_27844" data-name="Group 27844" transform="translate(163.32)">
            <path id="Path_32720" data-name="Path 32720" d="M492.22,228.11v75.644s25.247.765,24.472,0,0-35.139,0-35.139Z" transform="translate(-492.179 -156.413)" fill="#fff" stroke="#221e26" stroke-width="1"/>
            <path id="Path_32721" data-name="Path 32721" d="M543.522,315.4c2.086,14.159.784,30.288,0,36.382S524.79,412.35,524.79,412.35h43.768l12.054-57.706-16-44.083Z" transform="translate(-493.59 -159.985)" fill="url(#linear-gradient)"/>
            <path id="Path_32722" data-name="Path 32722" d="M543.36,315.4c2.085,14.159.784,30.288,0,36.382s-22.31,61.026-22.31,61.026H568.4l12.054-58.166-16-44.083Z" transform="translate(-493.428 -159.985)" fill="#908e92" stroke="#221e26" stroke-width="1"/>
            <path id="Path_32723" data-name="Path 32723" d="M596.244,299.93c6.448,20.2,35.339,26.739,27.37,59.381-5.75,23.563-17.488,53.047-17.488,53.047H551.5s17.134-51.364,17.134-58.166-10.753-41.759-10.753-41.759Z" transform="translate(-494.747 -159.525)" fill="#908e92" stroke="#221e26" stroke-width="1"/>
            <path id="Path_32724" data-name="Path 32724" d="M501.048,210.23c-6.448,3.071-12.332,16.761-6.448,29.6s6.725,10.552,8.964,20.635,1.358,15.67,19.813,28.241,17.89,15.919,18.732,22.338,52.78,5.023,51.947-18.99.488-51.756-14.981-64.834S501.048,210.23,501.048,210.23Z" transform="translate(-492.177 -155.638)" fill="#fff" stroke="#221e26" stroke-width="1"/>
            <path id="Path_32725" data-name="Path 32725" d="M494.71,179.14v72.095s26.174-14.044,25.945-27.782-11.834-44.313-11.834-44.313H494.71Z" transform="translate(-492.287 -154.291)" fill="#221e26"/>
            <path id="Path_32726" data-name="Path 32726" d="M513.93,223.674s3.482,5.644,4.669,8.065-4.066,13.145-2.334,22.338,13.1,7.625,15.642,0c.765-2.3,2.8-18.6,2.8-18.6V208.52Z" transform="translate(-493.12 -155.564)" fill="#ffbe9d"/>
            <path id="Path_32727" data-name="Path 32727" d="M518.6,231.738c7.357-8.237,14.972,26.653,2.908,28.423.029.01.057.01.086.019l1.722.191a9.223,9.223,0,0,0,8.581-6.295c.765-2.3,2.8-18.6,2.8-18.6V208.52L513.93,223.683C513.93,223.674,517.412,229.318,518.6,231.738Z" transform="translate(-493.12 -155.564)" fill="rgba(0,0,0,0.05)"/>
            <path id="Path_32728" data-name="Path 32728" d="M497.852,176.1c-3.578,22.176.354,42.629,11.05,45.05s26.031-9.27,26.031-19.593,10.342-37.2-1.425-43.347S500.129,161.966,497.852,176.1Z" transform="translate(-492.367 -153.304)" fill="#ffbe9d"/>
            <path id="Path_32729" data-name="Path 32729" d="M506.755,173.939a93.53,93.53,0,0,1-9.681,7.127c-4.095,2.44-3.09-11.624,4.841-18.234s18.339-12.236,22.558-8.438c0,0,13.221-3.654,21.238,9.844s8.581,25.591,11.107,28.968,6.754,5.482,4.783,11.815c0,0,14.063-2.813,16.177,6.888s1.406,12.839,1.406,12.839-4.372-3.415-13.336-6.553c0,0-6.037,4.755-11.805,4.755s-13.03,23.266-23.152,23.266l-.086-55.4S507.931,187.9,506.755,173.939Z" transform="translate(-492.287 -153.166)" fill="#221e26"/>
          </g>
          <g id="Group_27846" data-name="Group 27846" transform="translate(0 44.508)">
            <path id="Path_32730" data-name="Path 32730" d="M370.92,298.07c-26.567,27.667-49.46,112.065-49.46,112.065H359.6l23.84-56.032Z" transform="translate(-321.46 -203.952)" fill="#a7cf45"/>
            <path id="Path_32731" data-name="Path 32731" d="M511.5,301.717c-5.558-6.314-35.167-27.1-72.918-24.845-33.292,1.99-60.213,12.274-65.465,20.272-3.836,5.845,4.573,45.337,10.418,61.055a137.957,137.957,0,0,1,8.409,46.8s94.146-.545,94.691,0,11.7-34.737,13.164-52.282S497.962,315.79,511.5,301.717Z" transform="translate(-323.656 -203.026)" fill="#a7cf45"/>
            <path id="Path_32732" data-name="Path 32732" d="M462.877,242.63s.469,29.255,0,37.989-14.006,16.6-19.028,16.809-16.158-7.2-17.909-19.65V251.355Z" transform="translate(-325.987 -201.55)" fill="#ffbe9d"/>
            <path id="Path_32733" data-name="Path 32733" d="M463.059,258.53c-.057-8.476-.182-15.9-.182-15.9l-36.937,8.734v21.669c3.081,13.546,23.505,9.844,28.365-2.994C457.1,262.682,459.481,260.5,463.059,258.53Z" transform="translate(-325.987 -201.55)" fill="rgba(0,0,0,0.05)"/>
            <path id="Path_32734" data-name="Path 32734" d="M415.707,229.571c1.387,21.439,10.122,42.189,23.965,40,17.172-2.717,22.386-28.758,21.707-42.945S452.615,203.56,440.3,203.55C428.593,203.54,414.54,211.423,415.707,229.571Z" transform="translate(-325.541 -199.856)" fill="#ffbe9d"/>
            <path id="Path_32735" data-name="Path 32735" d="M467.38,237.836c-.918,4.276-2.994,7.519-4.649,7.242s-2.239-3.961-1.32-8.237,2.994-7.519,4.649-7.242S468.3,233.569,467.38,237.836Z" transform="translate(-327.505 -200.984)" fill="#ffbe9d"/>
            <path id="Path_32736" data-name="Path 32736" d="M415.88,232.762c-2.612-4-2.794-5.577-2.6-12.226s5.8-6.878,5.683-9.72,3.511-10.476,18.311-11.088,13.91,6.171,18.492,6.611,11.691,5.147,8.227,21.975c0,0-4.028.383-5.606,8.514a.732.732,0,0,1-1.292.249,10.7,10.7,0,0,1-1.358-3.119c-1.1-4.066-5.53,2.047-6.333-6.065-.574-5.778-14.666,4.822-25.122-4.544,0,0-1.55,2.066-6.008,1.932C415.688,225.2,415.88,232.762,415.88,232.762Z" transform="translate(-325.436 -199.689)" fill="#221e26"/>
            <g id="Group_27845" data-name="Group 27845" transform="translate(87.3 75.061)">
              <path id="Path_32737" data-name="Path 32737" d="M425.367,313.731s1.215,1.559,3.492-1.913,10.064-14.025,12.762-12.992l-.01-.019c-5.482-1.138-14.666-8.256-16.244-19.478v-.909c-4.353.6-8.534,1.349-12.494,2.191C411.773,286.82,416.422,306.881,425.367,313.731Z" transform="translate(-412.714 -278.162)" fill="#221e26"/>
              <path id="Path_32738" data-name="Path 32738" d="M463.785,282.168c-.411,7.6-10.7,14.532-16.675,16.35h0c2.822-1.1,13.2,12.552,14.991,15.556s5.1-1.062,8.39-9.452c2.382-6.094,6.075-16.589,4.525-24a105.941,105.941,0,0,0-11.1-2.468C463.89,279.728,463.842,281.106,463.785,282.168Z" transform="translate(-414.204 -278.15)" fill="#221e26"/>
            </g>
            <path id="Path_32739" data-name="Path 32739" d="M425.436,279.092V272.73c-5.52,2.42-10.638,4.477-11.193,7.634-1.1,6.19,3.865,24.175,11.193,30.527,0,0,1.215,1.559,3.492-1.913s10.064-11.432,12.762-10.389l-.01-.019C436.2,297.431,427.005,290.314,425.436,279.092Z" transform="translate(-325.473 -202.854)" fill="#a7cf45"/>
            <path id="Path_32740" data-name="Path 32740" d="M473.027,277.912c-1.531-3.454-6.486-6.266-9.021-7.462-.01,4.7-.067,8.888-.2,11.384-.411,7.6-10.7,14.532-16.675,16.35h0c2.822-1.1,13.2,9.949,14.991,12.963s4.018-.5,7.672-8.734C473.505,294.013,475.514,283.547,473.027,277.912Z" transform="translate(-326.905 -202.755)" fill="#a7cf45"/>
            <path id="Path_32741" data-name="Path 32741" d="M535.012,388.587c0-24.261-7.07-72.889-18.282-85.747,0,0-17.545,9.385-23.1,39.137-1.655,8.887,1.167,34.287,1.894,45.011Z" transform="translate(-328.897 -204.158)" fill="#a7cf45"/>
            <path id="Path_32742" data-name="Path 32742" d="M465.362,415.8h53.248c7.883,0,16.369-6.438,15.182-23.888s-29.733-15-39.482-1.6l-29.341,4.477Z" transform="translate(-327.678 -207.482)" fill="#a7cf45"/>
            <path id="Path_32743" data-name="Path 32743" d="M435.853,415.3l2.516-2.363,7.663,2.717a12.442,12.442,0,0,0,4.142.708h15.2s7.194-1.54,7.433-10.035-7.079-10.963-10.256-10.963H445.889a12.136,12.136,0,0,1-2.487-.258l-11.853-2.478a7.317,7.317,0,0,0-5.128.813l-6.716,3.855a16.991,16.991,0,0,0-3.559,2.727l-12.188,12.217a2.41,2.41,0,0,0,1.712,4.114h27.495A3.9,3.9,0,0,0,435.853,415.3Z" transform="translate(-325.004 -208.042)" fill="#ffbe9d"/>
          </g>
          <g id="Group_27847" data-name="Group 27847" transform="translate(100.424 73.293)">
            <path id="Path_32744" data-name="Path 32744" d="M581.07,231.119c-11.413-6.6-31.427,12.169-27.122,34.354s-20.061,49.709-20.061,49.709-27.61,11.088-38.7,13.183a42.925,42.925,0,0,1,7.07,16.6c18.129-1.492,44.15-5.185,54.664-13.939,15.89-13.24,32.776-62.078,32.776-77.6C589.709,235.376,581.07,231.119,581.07,231.119Z" transform="translate(-429.411 -229.778)" fill="#fff" stroke="#221e26" stroke-width="1"/>
            <path id="Path_32745" data-name="Path 32745" d="M489.331,333.174H453.638s-25.5,8.639-26.155,10.112-1.99,10.255,0,12.322,14.9,5.711,18.206,5.042,29.131-10.265,35.091-10.265c2.019,0,9.232-.191,18.5-.957a42.794,42.794,0,0,0-7.07-16.6A16.254,16.254,0,0,1,489.331,333.174Z" transform="translate(-426.432 -234.243)" fill="#ffbe9d"/>
          </g>
        </g>
        <g id="Group_27850" data-name="Group 27850">
          <path id="Path_32746" data-name="Path 32746" d="M253.04,307.522s8.945,7.079,18.091,0,2.851-19.162,2.851-19.162L253.04,299.515Z" transform="translate(-150.798 -146.052)" fill="#23c2f2"/>
          <path id="Path_32747" data-name="Path 32747" d="M265.751,239.07v52.923H248.54V241.969Z" transform="translate(-150.603 -143.916)" fill="#23c2f2"/>
          <g id="Group_27849" data-name="Group 27849" transform="translate(25.881 186.995)">
            <path id="Path_32748" data-name="Path 32748" d="M236.437,374.848c-1.655,8.83-11.069,21.238-17.057,39.147h34.2c3.281-21.516,6.247-50.388,1.569-76.065H235.433C237.251,346.588,237.987,366.544,236.437,374.848Z" transform="translate(-175.22 -335.194)" fill="#221e26"/>
            <path id="Path_32749" data-name="Path 32749" d="M202.92,372.935s3.961,19.22,6.658,41.06h9.079c5.989-17.909,15.393-30.317,17.057-39.147,1.559-8.3.813-28.27-1-36.918H203.733Z" transform="translate(-174.507 -335.194)" fill="#221e26"/>
            <path id="Path_32750" data-name="Path 32750" d="M233.423,337.806a17.861,17.861,0,0,0-.756-2.736H173.22c.823,28.614,3.071,57.094,4.429,78.792H217.38c5.989-17.909,15.393-30.317,17.057-39.147C235.987,366.42,235.251,346.464,233.423,337.806Z" transform="translate(-173.22 -335.07)" fill="#221e26"/>
          </g>
          <path id="Path_32751" data-name="Path 32751" d="M212.72,189.714c-35.167-9.433-58.921,6.266-62.815,28.815-3.559,20.588,22.29,84.35,22.29,110.132,0,0,41.682,21.487,79.92,2.736,0,0-5.74-27.342,0-51.565S265.48,241.737,259,224.355C253.35,209.172,229.175,194.124,212.72,189.714Z" transform="translate(-146.315 -141.657)" fill="#23c2f2"/>
          <path id="Path_32752" data-name="Path 32752" d="M228.393,165.494s-13.269,16.694-18.875,22.013,4.736,16.206,12.571,20.827c5.176,3.052,16.1,6.438,12.877-3.08,0,0-1.818-5.319,7-12.877C241.978,192.367,232.172,163.112,228.393,165.494Z" transform="translate(-148.843 -140.722)" fill="#ffbe9d"/>
          <path id="Path_32753" data-name="Path 32753" d="M242.774,192.618s-4.544-13.556-8.639-21.468l-4.324,2.038c-5.042,10.332-5.941,29.8,5.96,32.307C235.771,205.495,233.953,200.175,242.774,192.618Z" transform="translate(-149.639 -140.973)" fill="rgba(0,0,0,0.05)"/>
          <path id="Path_32754" data-name="Path 32754" d="M234.466,161.807c1.119-6.362-4.563-6.84-6.352-1.531-2.038,6.065.21,10.275,2.545,8.878,0,0-4.535,13.709,1.177,21.965s12.992,5.08,22.1-3.884c7.826-7.711,12.925-17.134,13.719-20.76,2.066-9.471-7.768-17.124-17-16.627C239.364,150.452,234.466,161.807,234.466,161.807Z" transform="translate(-149.683 -140.049)" fill="#ffbe9d"/>
          <path id="Path_32755" data-name="Path 32755" d="M234.646,161.365c-.354,3.75.258,6.649,2.459,5.376s7.424-8.821,12.178-3.367,8.61,10.523,17.048,9.624c10.906-1.158,13.432-15.919,3.827-18.559,0,0,4.181-5.07-3.253-7.424-6.792-2.153-7.07-.823-11.824-6.151-2.736-3.071-19.153-1.435-23.62,15.431C231.47,156.294,235.2,155.529,234.646,161.365Z" transform="translate(-149.863 -139.606)" fill="#221e26"/>
          <path id="Path_32756" data-name="Path 32756" d="M177.032,272.656c.344-7.328,4.889-26.356,11.279-38.516s3.262-27.782-5.434-33.9c-8.639-6.075-20.741-5-26.481,3.463-15.422,22.759-10.944,73.941-2.631,91.209,1.655,3.425,5.635,5.654,11.03,6.993C153.1,296.563,164.835,269.872,177.032,272.656Z" transform="translate(-146.167 -142.066)" fill="#23c2f2"/>
          <path id="Path_32757" data-name="Path 32757" d="M225.81,296.569l23.1-27.954a3.98,3.98,0,0,1,4.114-1.3l39.195,10.8a1.27,1.27,0,0,1,.517,2.162l-29.647,26.758a2.588,2.588,0,0,1-2.315.593L226.834,299.6A1.882,1.882,0,0,1,225.81,296.569Z" transform="translate(-149.599 -145.134)" fill="#908e92"/>
          <path id="Path_32758" data-name="Path 32758" d="M250.727,285.888a12.935,12.935,0,0,0-7.424-7.357c-1.626-.469-13.719-.258-20.214-.105a14.031,14.031,0,0,0-7.127,2.124c-2.047,1.282-4.592,2.707-5.864,2.707H189.682a71.634,71.634,0,0,0-12.045-7.156c-12.2-2.784-23.936,23.907-12.226,29.255,19.688,4.879,58.539-2.248,74.869-7.826a17.847,17.847,0,0,0,9-6.639C250.459,289.207,251.253,287.38,250.727,285.888Z" transform="translate(-146.792 -145.512)" fill="#ffbe9d"/>
        </g>
      </g>
      <g id="Group_27852" data-name="Group 27852" transform="translate(258.053 313.474)">
        <path id="Path_32759" data-name="Path 32759" d="M399.57,421.7h55.937a5.81,5.81,0,0,0,5.807-5.807h0a2.65,2.65,0,0,0-2.65-2.65H399.57a2.65,2.65,0,0,0-2.65,2.65v3.157A2.662,2.662,0,0,0,399.57,421.7Z" transform="translate(-268.918 -329.761)" fill="#fff" stroke="#221e26" stroke-width="1"/>
        <path id="Path_32760" data-name="Path 32760" d="M294.776,417.916H411.605a6.826,6.826,0,0,0,6.582-8.639l-20.626-75.07a11.192,11.192,0,0,0-10.791-8.227H269.951a6.826,6.826,0,0,0-6.582,8.639l20.626,75.07A11.164,11.164,0,0,0,294.776,417.916Z" transform="translate(-263.12 -325.98)" fill="#fff" stroke="#221e26" stroke-width="1"/>
      </g>
    </g>
  </g>
</svg>
