<svg id="Group_21594" data-name="Group 21594" xmlns="http://www.w3.org/2000/svg" width="36.002" height="36" viewBox="0 0 36.002 36">
  <g id="Group_21593" data-name="Group 21593">
    <g id="Path_21998" data-name="Path 21998" transform="translate(0.001 0.001)" fill="#a7cf45">
      <path d="M 10.99803256988525 35.24864196777344 C 10.95219230651855 35.24864196777344 10.91518306732178 35.24744415283203 10.88156223297119 35.24485397338867 C 10.44717311859131 35.21097183227539 10.05017280578613 34.98981094360352 9.793142318725586 34.63814163208008 L 6.586812496185303 30.24106216430664 C 6.44316291809082 30.0438117980957 6.267762660980225 29.86733245849609 6.065752506256104 29.71692276000977 L 1.357192754745483 26.25115203857422 C 1.006172657012939 25.99287223815918 0.7859926819801331 25.59488296508789 0.7530127167701721 25.15915298461914 C 0.7200226783752441 24.72429275512695 0.877692699432373 24.29894256591797 1.185582756996155 23.99205207824707 C 1.492832660675049 23.6848030090332 1.896552681922913 23.51607322692871 2.323242664337158 23.51607322692871 C 2.546452760696411 23.51607322692871 2.765072584152222 23.56217193603516 2.973032712936401 23.65309143066406 L 6.79938268661499 25.32551193237305 L 7.28729248046875 25.53877258300781 L 7.649502754211426 25.14846229553223 L 15.09358310699463 17.12691307067871 C 15.42595291137695 16.76919174194336 15.57660293579102 16.28599166870117 15.50661277770996 15.80154228210449 C 15.43691253662109 15.3192024230957 15.15844249725342 14.89852237701416 14.74262237548828 14.64734268188477 L 14.72445297241211 14.63636207580566 L 14.70569229125977 14.62643241882324 L 2.227789878845215 8.022078514099121 C 1.780858397483826 7.747533798217773 1.501739859580994 7.323482513427734 1.441102743148804 6.826042175292969 C 1.380652666091919 6.330162525177002 1.548892736434937 5.842272281646729 1.902672648429871 5.487462520599365 C 2.147092819213867 5.243042469024658 2.470612764358521 5.108002185821533 2.812872648239136 5.108002185821533 C 2.907012701034546 5.108002185821533 3.002202749252319 5.11835241317749 3.095822811126709 5.138742446899414 L 21.33159637451172 9.000990867614746 C 21.44745254516602 9.026791572570801 21.56606292724609 9.039872169494629 21.68424224853516 9.039872169494629 C 22.12926864624023 9.039872169494629 22.55756759643555 8.853455543518066 22.85993003845215 8.528265953063965 L 29.39466285705566 1.585672378540039 C 29.87253189086914 1.079142332077026 30.77477264404297 0.7667323350906372 31.80758285522461 0.7505923509597778 L 31.81191253662109 0.7505223155021667 L 31.81624221801758 0.7504023313522339 C 31.85940361022949 0.7492323517799377 31.90264320373535 0.7486523389816284 31.94562339782715 0.7486523389816284 C 32.94487380981445 0.7486523389816284 33.91666412353516 1.074762344360352 34.42136383056641 1.579452395439148 C 34.94765090942383 2.105742454528809 35.26524353027344 3.107792377471924 35.25019454956055 4.194552421569824 C 35.2354850769043 5.215214252471924 34.92910766601562 6.110051155090332 34.42972183227539 6.593619346618652 L 34.42972183227539 5.857802391052246 L 34.41472244262695 5.857802391052246 L 34.41472244262695 6.607964038848877 L 27.45414543151855 13.16827201843262 C 27.02923011779785 13.56422710418701 26.84825325012207 14.15795612335205 26.98105621337891 14.7196626663208 L 31.17252349853516 33.15608215332031 L 31.17324256896973 33.15923309326172 L 31.17398262023926 33.16238403320312 C 31.27787208557129 33.60174179077148 31.14780235290527 34.0561408996582 30.82605361938477 34.37789154052734 C 30.52108192443848 34.68285369873047 30.11652183532715 34.85082244873047 29.68691253662109 34.85083389282227 C 29.62371253967285 34.85083389282227 29.55962181091309 34.84710311889648 29.49641227722168 34.8397216796875 C 29.00962066650391 34.78215789794922 28.58209609985352 34.51226806640625 28.3216552734375 34.09828186035156 L 21.36664199829102 21.24258232116699 L 21.35597229003906 21.22285270690918 L 21.3441333770752 21.20379257202148 C 21.10809326171875 20.82369995117188 20.68768501281738 20.55708122253418 20.21889495849609 20.48991775512695 C 20.14235687255859 20.47848510742188 20.06437683105469 20.47268295288086 19.9870433807373 20.47268295288086 C 19.58579254150391 20.47268295288086 19.19916343688965 20.62528228759766 18.89839363098145 20.90237236022949 L 10.89094257354736 28.34417152404785 L 10.50139236450195 28.70621299743652 L 10.71415233612061 29.19360160827637 L 12.38506317138672 33.02138137817383 C 12.65236282348633 33.63487243652344 12.5201530456543 34.3372917175293 12.04804229736328 34.81043243408203 C 11.76699256896973 35.09348297119141 11.39456272125244 35.24864196777344 10.99803256988525 35.24864196777344 Z" stroke="none"/>
      <path d="M 10.99803256988525 34.49864196777344 C 11.19322299957275 34.49864196777344 11.37664222717285 34.42217254638672 11.51713275909424 34.28068161010742 C 11.77410316467285 34.02315139770508 11.84313297271729 33.65523147583008 11.69769287109375 33.32143402099609 L 9.601263046264648 28.51886177062988 L 18.39023208618164 20.35076141357422 C 18.82988357543945 19.94573211669922 19.39697265625 19.72268295288086 19.9870433807373 19.72268295288086 C 20.10088729858398 19.72268295288086 20.21563720703125 19.73117637634277 20.3282642364502 19.74793243408203 C 21.01276969909668 19.84690475463867 21.63013076782227 20.2426815032959 21.98127365112305 20.80813217163086 L 22.00494194030762 20.84625244140625 L 28.96785354614258 33.71654510498047 C 29.10928916931152 33.93051528930664 29.32743263244629 34.06451034545898 29.58329200744629 34.09477233886719 C 29.84848403930664 34.125732421875 30.10798835754395 34.03529357910156 30.29572296142578 33.84756088256836 C 30.43428230285645 33.70899200439453 30.48837280273438 33.52215194702148 30.44411277770996 33.33495330810547 L 30.44118309020996 33.32235336303711 L 26.25036239624023 14.88877582550049 C 26.0573616027832 14.0669002532959 26.32160377502441 13.19937705993652 26.9415225982666 12.62079811096191 L 33.90009307861328 6.062382221221924 C 34.18097305297852 5.796792507171631 34.48614120483398 5.163682460784912 34.50026321411133 4.1841721534729 C 34.51504135131836 3.117512226104736 34.18131256103516 2.400062322616577 33.89104080200195 2.109792232513428 C 33.58684158325195 1.80559229850769 32.8673210144043 1.498652338981628 31.94562339782715 1.498652338981628 C 31.90943336486816 1.498652338981628 31.87302207946777 1.499142289161682 31.83669281005859 1.500122308731079 L 31.81930351257324 1.500502347946167 C 30.83659362792969 1.515852332115173 30.20397186279297 1.820752382278442 29.94079208374023 2.099712371826172 L 23.40749740600586 9.040779113769531 C 22.96380233764648 9.516927719116211 22.33615684509277 9.789872169494629 21.68424224853516 9.789872169494629 C 21.51282691955566 9.789872169494629 21.34089469909668 9.771087646484375 21.17300033569336 9.734044075012207 L 2.936152696609497 5.871552467346191 C 2.748354911804199 5.830631256103516 2.566417694091797 5.884379863739014 2.433762788772583 6.017022132873535 C 2.24085259437561 6.210502147674561 2.15271258354187 6.465582370758057 2.185592651367188 6.735292434692383 C 2.217648983001709 6.998276710510254 2.361605405807495 7.217769622802734 2.602595567703247 7.371888160705566 L 15.13041305541992 14.00537204742432 C 15.73926258087158 14.37315273284912 16.14694213867188 14.9887228012085 16.2489128112793 15.69429206848145 C 16.35149192810059 16.40435218811035 16.13054275512695 17.11271286010742 15.64333248138428 17.63709259033203 L 7.474832534790039 26.43925285339355 L 2.672592639923096 24.34028244018555 C 2.559952735900879 24.29104232788086 2.44242262840271 24.26607322692871 2.323242664337158 24.26607322692871 C 2.096882581710815 24.26607322692871 1.881502747535706 24.35679244995117 1.715052723884583 24.52324295043945 C 1.562542676925659 24.67526245117188 1.484472751617432 24.88631248474121 1.500872731208801 25.10254287719727 C 1.517332673072815 25.32004165649414 1.626942753791809 25.51848220825195 1.801782727241516 25.64713287353516 L 6.513672828674316 29.1153621673584 C 6.776282787322998 29.3109016418457 7.004962921142578 29.54122161865234 7.192802906036377 29.79917144775391 L 10.39865303039551 34.19559097290039 C 10.52639293670654 34.37035369873047 10.72394275665283 34.48028182983398 10.93908309936523 34.49706268310547 C 10.95292282104492 34.49812316894531 10.97220230102539 34.49864196777344 10.99803256988525 34.49864196777344 M 10.99803256988525 35.99864196777344 C 10.93953227996826 35.99864196777344 10.88254261016846 35.99714279174805 10.82404232025146 35.99264144897461 C 10.17008304595947 35.94164276123047 9.574612617492676 35.61017227172852 9.18763256072998 35.08070373535156 L 5.980812549591064 30.68295288085938 C 5.880322933197021 30.54496192932129 5.758832931518555 30.4234619140625 5.617832660675049 30.31847190856934 L 0.9126027226448059 26.85517311096191 C 0.3846327066421509 26.4666919708252 0.05465269833803177 25.86972236633301 0.005152700003236532 25.21576309204102 C -0.04434730112552643 24.56330299377441 0.1926427036523819 23.92283248901367 0.6561126708984375 23.46086311340332 C 1.349072813987732 22.76790237426758 2.378012895584106 22.57441139221191 3.273462772369385 22.96589279174805 L 7.099752902984619 24.63829231262207 L 14.54383277893066 16.61674308776855 C 14.72082233428955 16.4262523651123 14.80181312561035 16.16827201843262 14.76432228088379 15.90878200531006 C 14.72682285308838 15.64930248260498 14.57833290100098 15.42431259155273 14.35484313964844 15.2893123626709 L 1.857542753219604 8.674692153930664 C 1.196082711219788 8.277212142944336 0.7851027250289917 7.642752170562744 0.6966127157211304 6.916792392730713 C 0.608122706413269 6.190832138061523 0.8541026711463928 5.476872444152832 1.371572732925415 4.957902431488037 C 1.86654257774353 4.462932109832764 2.567002773284912 4.255940914154053 3.255472660064697 4.405932426452637 L 21.4914436340332 8.26821231842041 C 21.7959156036377 8.337209701538086 22.10640335083008 8.238213539123535 22.31190299987793 8.016232490539551 L 28.84853363037109 1.071622371673584 C 29.4739933013916 0.4086523354053497 30.54793357849121 0.02018233761191368 31.79586219787598 0.0006823382573202252 C 33.0648193359375 -0.03381821140646935 34.27521896362305 0.372662752866745 34.95169448852539 1.049122333526611 C 35.62665176391602 1.724082350730896 36.01813125610352 2.904512405395508 36.0001220703125 4.204942226409912 C 35.98213195800781 5.452872276306152 35.5921516418457 6.526812553405762 34.93069458007812 7.152282238006592 L 27.96658325195312 13.71591186523438 C 27.73559188842773 13.93039226531982 27.63959312438965 14.24988269805908 27.71159362792969 14.54986190795898 L 31.90386199951172 32.98981094360352 C 32.06735229492188 33.68128204345703 31.86336326599121 34.4012336730957 31.35639190673828 34.90821075439453 C 30.84192085266113 35.42267227172852 30.12947463989258 35.66866302490234 29.40950202941895 35.58467102050781 C 28.68653297424316 35.49917221069336 28.05357360839844 35.095703125 27.67259216308594 34.4747314453125 L 20.70699310302734 21.59946250915527 C 20.59149360656738 21.41347312927246 20.36651229858398 21.26798248291016 20.11002349853516 21.23198318481445 C 19.8535327911377 21.1929759979248 19.59705352783203 21.27848052978516 19.40656280517578 21.45397186279297 L 11.40151309967041 28.89355278015137 L 13.07242298126221 32.72133255004883 C 13.46389293670654 33.61978149414062 13.27041244506836 34.64722061157227 12.57894229888916 35.34019088745117 C 12.15747261047363 35.76467132568359 11.58900260925293 35.99864196777344 10.99803256988525 35.99864196777344 Z M 34.41472244262695 6.607802391052246 L 34.42972183227539 6.607802391052246 L 34.41472244262695 6.607802391052246 Z" stroke="none" fill="#221e26"/>
    </g>
  </g>
</svg>
