<svg id="_017-ship" data-name="017-ship" xmlns="http://www.w3.org/2000/svg" width="36" height="36" viewBox="0 0 36 36">
  <g id="Group_21597" data-name="Group 21597" transform="translate(4.546 16.536)">
    <g id="Group_21596" data-name="Group 21596">
      <g id="Group_21595" data-name="Group 21595">
        <path id="Path_21999" data-name="Path 21999" d="M26.191,28.769A.693.693,0,0,1,26,28.743a.748.748,0,0,1-.534-.915L28.3,17.066,16.485,12.576,4.675,17.066,7.5,27.828a.749.749,0,0,1-1.449.381l-3-11.415a.749.749,0,0,1,.459-.891l12.705-4.83a.741.741,0,0,1,.533,0l12.7,4.83a.749.749,0,0,1,.459.891l-3,11.415a.75.75,0,0,1-.724.559Z" transform="translate(-3.03 -11.024)" fill="#908e92"/>
      </g>
    </g>
  </g>
  <g id="Group_21600" data-name="Group 21600" transform="translate(0 31.547)">
    <g id="Group_21599" data-name="Group 21599">
      <g id="Group_21598" data-name="Group 21598">
        <path id="Path_22000" data-name="Path 22000" d="M35.25,25.484a6.545,6.545,0,0,1-5.478-2.878.341.341,0,0,0-.543,0,6.655,6.655,0,0,1-10.959,0,.341.341,0,0,0-.541,0,6.652,6.652,0,0,1-10.956,0,.341.341,0,0,0-.543,0A6.55,6.55,0,0,1,.75,25.484a.75.75,0,1,1,0-1.5,5.049,5.049,0,0,0,4.23-2.211,1.927,1.927,0,0,1,3.039,0,5.155,5.155,0,0,0,8.463,0,1.926,1.926,0,0,1,3.038,0,5.152,5.152,0,0,0,8.46,0,1.927,1.927,0,0,1,3.039,0,5.054,5.054,0,0,0,4.231,2.211.75.75,0,1,1,0,1.5Z" transform="translate(0 -21.031)" fill="#908e92"/>
      </g>
    </g>
  </g>
  <g id="Group_21603" data-name="Group 21603" transform="translate(7.5 12)">
    <g id="Group_21602" data-name="Group 21602">
      <g id="Group_21601" data-name="Group 21601">
        <path id="Path_22001" data-name="Path 22001" d="M5.75,17.735a.75.75,0,0,1-.75-.75V8.75A.75.75,0,0,1,5.75,8H15.5a.75.75,0,0,1,.75.75v4.53a.75.75,0,0,1-1.5,0V9.5H6.5v7.485A.749.749,0,0,1,5.75,17.735Z" transform="translate(-5 -8)" fill="#908e92"/>
      </g>
    </g>
  </g>
  <g id="Group_21606" data-name="Group 21606" transform="translate(17.25 12)">
    <g id="Group_21605" data-name="Group 21605">
      <g id="Group_21604" data-name="Group 21604">
        <path id="Path_22002" data-name="Path 22002" d="M22,17.735a.75.75,0,0,1-.75-.75V9.5H13v3.78a.75.75,0,0,1-1.5,0V8.75A.75.75,0,0,1,12.25,8H22a.75.75,0,0,1,.75.75v8.235A.749.749,0,0,1,22,17.735Z" transform="translate(-11.5 -8)" fill="#908e92"/>
      </g>
    </g>
  </g>
  <g id="Group_21609" data-name="Group 21609" transform="translate(12 4.5)">
    <g id="Group_21608" data-name="Group 21608">
      <g id="Group_21607" data-name="Group 21607">
        <path id="Path_22003" data-name="Path 22003" d="M19.25,12a.75.75,0,0,1-.75-.75V4.5h-9v6.75a.75.75,0,1,1-1.5,0V3.75A.75.75,0,0,1,8.75,3h10.5a.75.75,0,0,1,.75.75v7.5A.75.75,0,0,1,19.25,12Z" transform="translate(-8 -3)" fill="#908e92"/>
      </g>
    </g>
  </g>
  <g id="Group_21612" data-name="Group 21612" transform="translate(17.25)">
    <g id="Group_21611" data-name="Group 21611">
      <g id="Group_21610" data-name="Group 21610">
        <path id="Path_22004" data-name="Path 22004" d="M12.25,6a.75.75,0,0,1-.75-.75V.75a.75.75,0,1,1,1.5,0v4.5A.75.75,0,0,1,12.25,6Z" transform="translate(-11.5)" fill="#908e92"/>
      </g>
    </g>
  </g>
</svg>
