<svg xmlns="http://www.w3.org/2000/svg" width="25.714" height="36" viewBox="0 0 25.714 36">
  <g id="Train" transform="translate(-12 -4)">
    <path id="Path_31435" data-name="Path 31435" d="M33.214,32.286H16.5a4.505,4.505,0,0,1-4.5-4.5V8.5A4.505,4.505,0,0,1,16.5,4H33.214a4.505,4.505,0,0,1,4.5,4.5V27.786a4.505,4.505,0,0,1-4.5,4.5ZM16.5,5.286A3.218,3.218,0,0,0,13.286,8.5V27.786A3.218,3.218,0,0,0,16.5,31H33.214a3.218,3.218,0,0,0,3.214-3.214V8.5a3.218,3.218,0,0,0-3.214-3.214Z" fill="#908e92"/>
    <path id="Path_31436" data-name="Path 31436" d="M33.071,9.286H26.643a.643.643,0,1,1,0-1.286h6.429a.643.643,0,1,1,0,1.286Z" transform="translate(-5 -1.429)" fill="#908e92"/>
    <circle id="Ellipse_1279" data-name="Ellipse 1279" cx="0.643" cy="0.643" r="0.643" transform="translate(18.429 6.571)" fill="#908e92"/>
    <circle id="Ellipse_1280" data-name="Ellipse 1280" cx="0.643" cy="0.643" r="0.643" transform="translate(30 6.571)" fill="#908e92"/>
    <path id="Path_31437" data-name="Path 31437" d="M34.643,21H17.929A1.931,1.931,0,0,1,16,19.071V13.929A1.931,1.931,0,0,1,17.929,12H34.643a1.931,1.931,0,0,1,1.929,1.929v5.143A1.931,1.931,0,0,1,34.643,21ZM17.929,13.286a.643.643,0,0,0-.643.643v5.143a.643.643,0,0,0,.643.643H34.643a.643.643,0,0,0,.643-.643V13.929a.643.643,0,0,0-.643-.643Z" transform="translate(-1.429 -2.857)" fill="#908e92"/>
    <path id="Path_31438" data-name="Path 31438" d="M31.643,21A.643.643,0,0,1,31,20.357V12.643a.643.643,0,0,1,1.286,0v7.714A.643.643,0,0,1,31.643,21Z" transform="translate(-6.786 -2.857)" fill="#908e92"/>
    <path id="Path_31439" data-name="Path 31439" d="M18.571,35.143a2.571,2.571,0,1,1,2.571-2.571,2.571,2.571,0,0,1-2.571,2.571Zm0-3.857a1.286,1.286,0,1,0,1.286,1.286,1.286,1.286,0,0,0-1.286-1.286Z" transform="translate(-1.429 -9.286)" fill="#908e92"/>
    <path id="Path_31440" data-name="Path 31440" d="M42.571,35.143a2.571,2.571,0,1,1,2.571-2.571,2.571,2.571,0,0,1-2.571,2.571Zm0-3.857a1.286,1.286,0,1,0,1.286,1.286,1.286,1.286,0,0,0-1.286-1.286Z" transform="translate(-10 -9.286)" fill="#908e92"/>
    <path id="Path_31441" data-name="Path 31441" d="M36.971,43.286H12.993a.643.643,0,0,1,0-1.286H36.971a.643.643,0,0,1,0,1.286Z" transform="translate(-0.125 -13.571)" fill="#908e92"/>
    <path id="Path_31442" data-name="Path 31442" d="M33.071,32.286H26.643a.643.643,0,1,1,0-1.286h6.429a.643.643,0,1,1,0,1.286Z" transform="translate(-5 -9.643)" fill="#908e92"/>
    <path id="Path_31443" data-name="Path 31443" d="M32.5,36.286H28.643a.643.643,0,0,1,0-1.286H32.5a.643.643,0,0,1,0,1.286Z" transform="translate(-5.714 -11.071)" fill="#908e92"/>
    <path id="Path_31444" data-name="Path 31444" d="M14.642,55a.643.643,0,0,1-.574-.93l3.857-7.714a.643.643,0,1,1,1.15.575l-3.857,7.714A.643.643,0,0,1,14.642,55Z" transform="translate(-0.714 -15)" fill="#908e92"/>
    <path id="Path_31445" data-name="Path 31445" d="M46.5,55a.643.643,0,0,1-.576-.355L42.068,46.93a.643.643,0,1,1,1.15-.575l3.857,7.714A.643.643,0,0,1,46.5,55Z" transform="translate(-10.714 -15)" fill="#908e92"/>
    <path id="Path_31446" data-name="Path 31446" d="M35.357,51.286H18.643a.643.643,0,1,1,0-1.286H35.357a.643.643,0,1,1,0,1.286Z" transform="translate(-2.143 -16.429)" fill="#908e92"/>
    <path id="Path_31447" data-name="Path 31447" d="M36.214,57.286H15.643a.643.643,0,1,1,0-1.286H36.214a.643.643,0,1,1,0,1.286Z" transform="translate(-1.071 -18.571)" fill="#908e92"/>
  </g>
</svg>
