<svg xmlns="http://www.w3.org/2000/svg" width="40.801" height="34" viewBox="0 0 40.801 34">
  <g id="Group_28455" data-name="Group 28455" transform="translate(21606.801 15544)">
    <path id="Path_33885" data-name="Path 33885" d="M-21605.83-15543.17h17.988v28.652s-.957-2.437-4.84-2.679c-.758-.046-4.029,2.633-5.105,2.438-1.809-.328-3.213-2.438-4.674-2.438-4.5,0-3.369,2.679-3.369,2.679Z" fill="#a7cf45"/>
    <path id="Path_33884" data-name="Path 33884" d="M-21581.932-15542.8v28.514h3.348s.492-3.46,3.125-3.46,3.684,3.46,3.684,3.46h4.91v-18.581h-3.684s.779-4.742-2.9-7.365A16.094,16.094,0,0,0-21581.932-15542.8Z" fill="#a7cf45"/>
    <g id="_002-truck" data-name="002-truck" transform="translate(-21606.801 -15544)">
      <g id="Group_21562" data-name="Group 21562" transform="translate(6.8 28.9)">
        <g id="Group_21561" data-name="Group 21561">
          <g id="Group_21560" data-name="Group 21560">
            <path id="Path_21987" data-name="Path 21987" d="M8.25,21.7H4.85a.85.85,0,0,1,0-1.7h3.4a.85.85,0,0,1,0,1.7Z" transform="translate(-4 -20)" fill="#221e26"/>
          </g>
        </g>
      </g>
      <g id="Group_21565" data-name="Group 21565">
        <g id="Group_21564" data-name="Group 21564">
          <g id="Group_21563" data-name="Group 21563">
            <path id="Path_21988" data-name="Path 21988" d="M19.55,33.6h-1.7a.85.85,0,1,1,0-1.7h.85V5.55a.851.851,0,0,0-.85-.85H.85A.85.85,0,1,1,.85,3h17A2.553,2.553,0,0,1,20.4,5.55v27.2A.85.85,0,0,1,19.55,33.6Z" transform="translate(0 -3)" fill="#221e26"/>
          </g>
        </g>
      </g>
      <g id="Group_21568" data-name="Group 21568" transform="translate(23.8 10.2)">
        <g id="Group_21567" data-name="Group 21567">
          <g id="Group_21566" data-name="Group 21566">
            <path id="Path_21989" data-name="Path 21989" d="M28.45,29.4h-3.4a.85.85,0,0,1,0-1.7h3.4a.851.851,0,0,0,.85-.85V10.7H15.7v17h2.55a.85.85,0,0,1,0,1.7h-3.4a.85.85,0,0,1-.85-.85V9.85A.85.85,0,0,1,14.85,9h15.3a.85.85,0,0,1,.85.85v17A2.553,2.553,0,0,1,28.45,29.4Z" transform="translate(-14 -9)" fill="#221e26"/>
          </g>
        </g>
      </g>
      <g id="Group_21571" data-name="Group 21571" transform="translate(11.9 5.1)">
        <g id="Group_21570" data-name="Group 21570">
          <g id="Group_21569" data-name="Group 21569">
            <path id="Path_21990" data-name="Path 21990" d="M7.85,23A.85.85,0,0,1,7,22.15V6.85a.85.85,0,0,1,1.7,0v15.3A.85.85,0,0,1,7.85,23Z" transform="translate(-7 -6)" fill="#221e26"/>
          </g>
        </g>
      </g>
      <g id="Group_21574" data-name="Group 21574" transform="translate(3.4 5.1)">
        <g id="Group_21573" data-name="Group 21573">
          <g id="Group_21572" data-name="Group 21572">
            <path id="Path_21991" data-name="Path 21991" d="M2.85,23A.85.85,0,0,1,2,22.15V6.85a.85.85,0,1,1,1.7,0v15.3A.85.85,0,0,1,2.85,23Z" transform="translate(-2 -6)" fill="#221e26"/>
          </g>
        </g>
      </g>
      <g id="Group_21577" data-name="Group 21577" transform="translate(27.2 25.5)">
        <g id="Group_21576" data-name="Group 21576">
          <g id="Group_21575" data-name="Group 21575">
            <path id="Path_21992" data-name="Path 21992" d="M20.25,26.5a4.25,4.25,0,1,1,4.25-4.25A4.255,4.255,0,0,1,20.25,26.5Zm0-6.8a2.55,2.55,0,1,0,2.55,2.55A2.553,2.553,0,0,0,20.25,19.7Z" transform="translate(-16 -18)" fill="#221e26"/>
          </g>
        </g>
      </g>
      <g id="Group_21580" data-name="Group 21580" transform="translate(10.2 25.5)">
        <g id="Group_21579" data-name="Group 21579">
          <g id="Group_21578" data-name="Group 21578">
            <path id="Path_21993" data-name="Path 21993" d="M10.25,26.5a4.25,4.25,0,1,1,4.25-4.25A4.255,4.255,0,0,1,10.25,26.5Zm0-6.8a2.55,2.55,0,1,0,2.55,2.55A2.553,2.553,0,0,0,10.25,19.7Z" transform="translate(-6 -18)" fill="#221e26"/>
          </g>
        </g>
      </g>
      <g id="Group_21583" data-name="Group 21583" transform="translate(0 25.5)">
        <g id="Group_21582" data-name="Group 21582">
          <g id="Group_21581" data-name="Group 21581">
            <path id="Path_21994" data-name="Path 21994" d="M4.25,26.5A4.25,4.25,0,1,1,8.5,22.25,4.255,4.255,0,0,1,4.25,26.5Zm0-6.8A2.55,2.55,0,1,0,6.8,22.25,2.553,2.553,0,0,0,4.25,19.7Z" transform="translate(0 -18)" fill="#221e26"/>
          </g>
        </g>
      </g>
      <g id="Group_21586" data-name="Group 21586" transform="translate(23.8)">
        <g id="Group_21585" data-name="Group 21585">
          <g id="Group_21584" data-name="Group 21584">
            <path id="Path_21995" data-name="Path 21995" d="M26.75,14.9a.85.85,0,0,1-.85-.85A9.361,9.361,0,0,0,16.55,4.7H15.7v9.35a.85.85,0,1,1-1.7,0V3.85A.85.85,0,0,1,14.85,3h1.7A11.063,11.063,0,0,1,27.6,14.05.85.85,0,0,1,26.75,14.9Z" transform="translate(-14 -3)" fill="#221e26"/>
          </g>
        </g>
      </g>
      <g id="Group_21589" data-name="Group 21589" transform="translate(28.9 15.3)">
        <g id="Group_21588" data-name="Group 21588">
          <g id="Group_21587" data-name="Group 21587">
            <path id="Path_21996" data-name="Path 21996" d="M28.05,18.8H17.85a.85.85,0,0,1-.85-.85v-5.1a.85.85,0,0,1,.85-.85h10.2a.85.85,0,1,1,0,1.7H18.7v3.4h9.35a.85.85,0,1,1,0,1.7Z" transform="translate(-17 -12)" fill="#221e26"/>
          </g>
        </g>
      </g>
      <g id="Group_21592" data-name="Group 21592" transform="translate(18.7 28.9)">
        <g id="Group_21591" data-name="Group 21591">
          <g id="Group_21590" data-name="Group 21590">
            <path id="Path_21997" data-name="Path 21997" d="M16.95,21.7h-5.1a.85.85,0,0,1,0-1.7h5.1a.85.85,0,1,1,0,1.7Z" transform="translate(-11 -20)" fill="#221e26"/>
          </g>
        </g>
      </g>
    </g>
  </g>
</svg>
