<svg xmlns="http://www.w3.org/2000/svg" width="35.977" height="36" viewBox="0 0 35.977 36">
  <g id="Group_28458" data-name="Group 28458" transform="translate(21085 15545)">
    <path id="Subtraction_11" data-name="Subtraction 11" d="M8.412,33.8H0V9.865L14.216,0,28.724,9.865V33.8H20.412V28.283h-3v-6h-6v6h-3V33.8Z" transform="translate(-21081.412 -15544.282)" fill="#a7cf45"/>
    <g id="Artworks" transform="translate(-21085 -15545)">
      <path id="Path_22005" data-name="Path 22005" d="M35.672,11.372,18.418.122a.75.75,0,0,0-.82,0L.348,11.372a.75.75,0,0,0,.82,1.256l1.838-1.2V33.75A2.25,2.25,0,0,0,5.256,36H30.762a2.25,2.25,0,0,0,2.25-2.25V11.428c.291.139,1.935,1.4,2.25,1.322a.755.755,0,0,0,.41-1.378ZM26.26,34.5h-1.5V29.25a.75.75,0,0,0-.75-.75H21.757V23.25a.75.75,0,0,0-.75-.75h-6a.75.75,0,0,0-.75.75V28.5h-2.25a.75.75,0,0,0-.75.75V34.5h-1.5V21h16.5Zm-10.5-6V24h4.5v4.5Zm-3,1.5h4.5v4.5h-4.5Zm6,4.5V30h4.5v4.5Zm12.75-.75a.75.75,0,0,1-.75.75h-3V20.25a.75.75,0,0,0-.75-.75h-18a.75.75,0,0,0-.75.75V34.5h-3a.75.75,0,0,1-.75-.75V10.45l13.5-8.8,13.5,8.8ZM24.007,15a.75.75,0,0,1-.75.75h-10.5a.75.75,0,1,1,0-1.5h10.5a.75.75,0,0,1,.754.75Zm-11.25-4.5h10.5a.75.75,0,1,1,0,1.5h-10.5a.75.75,0,1,1,0-1.5Z" transform="translate(-0.026 0)" fill="#221e26"/>
    </g>
  </g>
</svg>
